<?xml version="1.0" encoding="UTF-8"?>
<!DOCTYPE svg PUBLIC "-//W3C//DTD SVG 1.1//EN" "http://www.w3.org/Graphics/SVG/1.1/DTD/svg11.dtd">
<!-- Creator: CorelDRAW 2021 (64-Bit) -->
<svg xmlns="http://www.w3.org/2000/svg" xml:space="preserve" width="4.55333in" height="2.55999in" version="1.1" style="shape-rendering:geometricPrecision; text-rendering:geometricPrecision; image-rendering:optimizeQuality; fill-rule:evenodd; clip-rule:evenodd"
viewBox="0 0 4553.33 2559.99"
 xmlns:xlink="http://www.w3.org/1999/xlink"
 xmlns:xodm="http://www.corel.com/coreldraw/odm/2003">
 <defs>
  <style type="text/css">
   <![CDATA[
    .fil6 {fill:#F05657}
    .fil7 {fill:#E64E50}
    .fil5 {fill:#FEFEFE;fill-rule:nonzero}
    .fil1 {fill:#F05659;fill-rule:nonzero}
    .fil3 {fill:#282828;fill-rule:nonzero}
    .fil2 {fill:#444697;fill-rule:nonzero}
    .fil4 {fill:#3F499B;fill-rule:nonzero}
    .fil0 {fill:white;fill-rule:nonzero}
   ]]>
  </style>
 </defs>
 <g id="Layer_x0020_1">
  <metadata id="CorelCorpID_0Corel-Layer"/>
  <g id="_1513352868752">
   <polygon class="fil0" points="-0,2560 -0,-0 4553.33,-0 4553.33,2560 "/>
   <path class="fil1" d="M3333.55 1455.25c-50.43,49.94 -50.45,130.91 -0.02,180.84l182.65 -180.85c-50.43,-49.93 -132.2,-49.91 -182.63,0.02z"/>
   <path class="fil2" d="M3432.42 1720.08l-5.04 -5.07c23.82,-23.6 35.7,-54.44 35.71,-85.35 -0.01,-30.9 -11.87,-61.73 -35.69,-85.32l5.03 -5.09 5.04 5.09 -182.64 180.85 -5.04 -5.08 5.04 -5.09c23.82,23.59 55.01,35.35 86.27,35.37 31.26,-0.02 62.45,-11.8 86.28,-35.38l5.04 5.07 5.04 5.09c-26.61,26.33 -61.52,39.53 -96.36,39.53 -34.84,0 -69.75,-13.17 -96.36,-39.51 -1.35,-1.35 -2.11,-3.17 -2.11,-5.08 0,-1.91 0.77,-3.74 2.11,-5.09l182.66 -180.85c2.79,-2.76 7.28,-2.76 10.07,0 26.61,26.33 39.94,60.94 39.94,95.49 0.01,34.55 -13.35,69.17 -39.95,95.51l-5.04 -5.09z"/>
   <path class="fil1" d="M486.85 2243.05c-78.73,78.69 -78.76,206.29 -0.04,284.98l285.16 -285.02c-78.74,-78.69 -206.4,-78.65 -285.12,0.04z"/>
   <path class="fil2" d="M495.2 2299.5l5.06 5.06c-37.98,37.96 -56.96,87.66 -56.96,137.43 0,41.67 13.29,83.28 39.9,118l-17.69 0c-24.35,-35.44 -36.54,-76.74 -36.53,-118 -0.01,-53.39 20.41,-106.83 61.15,-147.55l5.06 5.06zm14.33 260.49l265.73 -265.59 5.06 5.06 -5.06 5.06c-37.99,-37.96 -87.71,-56.9 -137.5,-56.91 -49.79,0.01 -99.51,18.98 -137.5,56.94l-5.06 -5.06 -5.06 -5.06c40.75,-40.73 94.22,-61.13 147.62,-61.13 53.4,-0.01 106.88,20.37 147.63,61.09 1.33,1.34 2.09,3.18 2.09,5.06 0,1.89 -0.76,3.73 -2.09,5.06l-255.6 255.47 -20.25 0z"/>
   <path class="fil2" d="M610.91 1659.85l-5.06 -5.06 265.35 -265.21c0.71,-0.72 1.04,-1.6 1.05,-2.55 -0.01,-0.94 -0.34,-1.83 -1.05,-2.54l-265.35 -265.21c-0.72,-0.72 -1.61,-1.04 -2.54,-1.06 -0.95,0.02 -1.82,0.34 -2.54,1.05l-265.36 265.22c-0.72,0.71 -1.05,1.6 -1.06,2.54 0.01,0.94 0.33,1.82 1.06,2.55l265.35 265.21c0.72,0.72 1.6,1.05 2.54,1.06 0.93,-0.01 1.81,-0.34 2.54,-1.06l5.07 5.06 5.06 5.06c-3.48,3.49 -8.11,5.26 -12.67,5.25 -4.57,0.01 -9.19,-1.76 -12.67,-5.25l-265.35 -265.2c-3.48,-3.48 -5.26,-8.1 -5.24,-12.67 -0.02,-4.56 1.76,-9.19 5.24,-12.67l265.36 -265.21c3.47,-3.49 8.09,-5.25 12.66,-5.24 4.56,-0 9.19,1.76 12.67,5.24l265.34 265.21c3.48,3.48 5.26,8.11 5.25,12.67 0.01,4.56 -1.77,9.19 -5.25,12.67l-265.35 265.21 -5.06 -5.07z"/>
   <path class="fil3" d="M593.45 1031.27c2.43,2.43 6.36,2.43 8.78,0 2.43,-2.43 2.43,-6.36 0,-8.78 -2.43,-2.43 -6.36,-2.43 -8.78,0 -2.43,2.42 -2.43,6.35 0,8.78z"/>
   <path class="fil3" d="M524.64 1100.05c2.42,2.43 6.36,2.43 8.78,0 2.42,-2.43 2.42,-6.35 0,-8.78 -2.42,-2.43 -6.36,-2.43 -8.78,0 -2.43,2.42 -2.43,6.35 0,8.78z"/>
   <path class="fil3" d="M455.82 1168.83c2.43,2.43 6.37,2.43 8.78,0 2.43,-2.42 2.43,-6.35 0,-8.77 -2.41,-2.43 -6.35,-2.43 -8.78,0 -2.43,2.42 -2.43,6.35 0,8.77z"/>
   <path class="fil3" d="M387 1237.62c2.43,2.42 6.37,2.42 8.79,0 2.42,-2.43 2.42,-6.35 0,-8.78 -2.42,-2.43 -6.36,-2.43 -8.79,0 -2.42,2.43 -2.42,6.35 0,8.78z"/>
   <path class="fil3" d="M318.19 1306.41c2.43,2.42 6.36,2.42 8.78,0 2.42,-2.43 2.42,-6.36 0,-8.78 -2.42,-2.43 -6.35,-2.43 -8.78,0 -2.43,2.42 -2.43,6.35 0,8.78z"/>
   <path class="fil3" d="M654.95 1092.73c2.42,2.42 6.35,2.42 8.78,0 2.43,-2.43 2.43,-6.36 0,-8.78 -2.43,-2.43 -6.36,-2.43 -8.78,0 -2.43,2.42 -2.43,6.35 0,8.78z"/>
   <path class="fil3" d="M586.13 1161.52c2.43,2.42 6.36,2.42 8.78,0 2.43,-2.43 2.43,-6.36 0,-8.79 -2.43,-2.43 -6.36,-2.43 -8.78,0 -2.43,2.43 -2.43,6.35 0,8.79z"/>
   <path class="fil3" d="M517.31 1230.3c2.44,2.43 6.36,2.43 8.78,0 2.43,-2.42 2.43,-6.36 0,-8.77 -2.42,-2.43 -6.35,-2.43 -8.78,0 -2.42,2.41 -2.42,6.35 0,8.77z"/>
   <path class="fil3" d="M448.49 1299.08c2.43,2.43 6.37,2.43 8.8,0 2.42,-2.42 2.42,-6.35 0,-8.78 -2.43,-2.43 -6.36,-2.43 -8.8,0 -2.41,2.42 -2.41,6.35 0,8.78z"/>
   <path class="fil3" d="M379.68 1367.86c2.43,2.43 6.37,2.43 8.79,0 2.43,-2.42 2.43,-6.35 0,-8.77 -2.42,-2.43 -6.35,-2.43 -8.79,0 -2.43,2.42 -2.43,6.35 0,8.77z"/>
   <path class="fil3" d="M716.44 1154.2c2.43,2.43 6.37,2.43 8.79,0 2.43,-2.43 2.43,-6.36 0,-8.78 -2.42,-2.43 -6.35,-2.43 -8.79,0 -2.43,2.42 -2.43,6.35 0,8.78z"/>
   <path class="fil3" d="M647.63 1222.98c2.43,2.43 6.35,2.43 8.79,0 2.43,-2.43 2.43,-6.35 0,-8.78 -2.43,-2.43 -6.36,-2.43 -8.79,0 -2.43,2.43 -2.43,6.35 0,8.78z"/>
   <path class="fil3" d="M578.81 1291.76c2.44,2.43 6.37,2.43 8.79,0 2.43,-2.43 2.43,-6.35 0,-8.78 -2.42,-2.43 -6.35,-2.43 -8.79,0 -2.42,2.43 -2.42,6.35 0,8.78z"/>
   <path class="fil3" d="M510 1360.55c2.42,2.42 6.35,2.42 8.78,0 2.43,-2.43 2.43,-6.36 0,-8.78 -2.43,-2.42 -6.36,-2.42 -8.78,0 -2.44,2.42 -2.44,6.35 0,8.78z"/>
   <path class="fil3" d="M441.17 1429.33c2.44,2.43 6.36,2.43 8.79,0 2.43,-2.42 2.43,-6.35 0,-8.78 -2.43,-2.43 -6.35,-2.43 -8.79,0 -2.43,2.42 -2.43,6.36 0,8.78z"/>
   <path class="fil3" d="M777.94 1215.66c2.43,2.43 6.37,2.43 8.78,0 2.43,-2.42 2.43,-6.35 0,-8.78 -2.42,-2.43 -6.36,-2.43 -8.78,0 -2.43,2.43 -2.43,6.36 0,8.78z"/>
   <path class="fil3" d="M709.12 1284.44c2.43,2.43 6.36,2.43 8.79,0 2.42,-2.43 2.42,-6.35 0,-8.78 -2.43,-2.43 -6.36,-2.43 -8.79,0 -2.43,2.42 -2.43,6.35 0,8.78z"/>
   <path class="fil3" d="M640.3 1353.23c2.43,2.43 6.37,2.43 8.79,0 2.43,-2.42 2.43,-6.35 0,-8.78 -2.42,-2.43 -6.35,-2.43 -8.79,0 -2.42,2.43 -2.42,6.36 0,8.78z"/>
   <path class="fil3" d="M571.5 1422.02c2.42,2.43 6.35,2.43 8.78,0 2.42,-2.43 2.42,-6.36 0,-8.78 -2.43,-2.43 -6.37,-2.43 -8.78,0 -2.43,2.43 -2.43,6.35 0,8.78z"/>
   <path class="fil3" d="M502.67 1490.79c2.44,2.43 6.37,2.43 8.79,0 2.43,-2.42 2.43,-6.35 0,-8.78 -2.42,-2.43 -6.35,-2.43 -8.79,0 -2.43,2.43 -2.43,6.36 0,8.78z"/>
   <path class="fil3" d="M839.44 1277.13c2.43,2.42 6.36,2.42 8.78,0 2.43,-2.43 2.43,-6.37 0,-8.79 -2.42,-2.42 -6.35,-2.42 -8.78,0 -2.42,2.43 -2.42,6.37 0,8.79z"/>
   <path class="fil3" d="M770.62 1345.91c2.42,2.43 6.36,2.43 8.79,0 2.43,-2.43 2.43,-6.36 0,-8.78 -2.43,-2.42 -6.37,-2.42 -8.79,0 -2.43,2.43 -2.43,6.35 0,8.78z"/>
   <path class="fil3" d="M701.8 1414.7c2.43,2.42 6.37,2.42 8.78,0 2.43,-2.42 2.43,-6.35 0,-8.78 -2.42,-2.43 -6.35,-2.43 -8.78,0 -2.43,2.43 -2.43,6.36 0,8.78z"/>
   <path class="fil3" d="M633 1483.48c2.41,2.41 6.34,2.41 8.77,0 2.43,-2.43 2.43,-6.36 0,-8.78 -2.43,-2.43 -6.37,-2.43 -8.77,0 -2.44,2.42 -2.44,6.35 0,8.78z"/>
   <path class="fil3" d="M564.16 1552.26c2.44,2.43 6.37,2.43 8.8,0 2.42,-2.41 2.42,-6.35 0,-8.78 -2.43,-2.42 -6.36,-2.42 -8.8,0 -2.42,2.43 -2.42,6.37 0,8.78z"/>
   <path class="fil3" d="M900.93 1338.59c2.43,2.43 6.37,2.43 8.79,0 2.43,-2.42 2.43,-6.35 0,-8.78 -2.42,-2.43 -6.35,-2.43 -8.79,0 -2.43,2.43 -2.43,6.35 0,8.78z"/>
   <path class="fil3" d="M832.11 1407.38c2.42,2.43 6.35,2.43 8.79,0 2.43,-2.43 2.43,-6.36 0,-8.78 -2.43,-2.43 -6.37,-2.43 -8.79,0 -2.43,2.42 -2.43,6.35 0,8.78z"/>
   <path class="fil3" d="M763.3 1476.16c2.43,2.42 6.37,2.42 8.79,0 2.43,-2.41 2.43,-6.35 0,-8.78 -2.42,-2.43 -6.36,-2.43 -8.79,0 -2.42,2.43 -2.42,6.37 0,8.78z"/>
   <path class="fil3" d="M694.48 1544.94c2.42,2.42 6.36,2.42 8.78,0 2.43,-2.43 2.43,-6.36 0,-8.78 -2.43,-2.43 -6.37,-2.43 -8.78,0 -2.43,2.42 -2.43,6.35 0,8.78z"/>
   <path class="fil3" d="M625.66 1613.72c2.44,2.43 6.37,2.43 8.79,0 2.42,-2.41 2.42,-6.35 0,-8.77 -2.43,-2.43 -6.35,-2.43 -8.79,0 -2.42,2.42 -2.42,6.36 0,8.77z"/>
   <path class="fil2" d="M2483.28 2207.79l0 7.15 -244.9 0 0 -0.13 0.14 0 -0.14 0.13 0 -0.13 0.14 0 0 244.78 -0.14 0 0 -0.13 0.14 0.13 -0.14 0 0 -0.13 244.9 0 0 0.13 -0.14 0 0.14 -0.13 0 0.13 -0.14 0 0 -244.78 0.14 0 0 0.13 -0.14 -0.13 0.14 0 0 0.13 0 -14.3c7.83,0 14.17,6.34 14.18,14.17l0 244.78c-0.02,7.83 -6.35,14.18 -14.18,14.18l-244.9 0c-7.83,0 -14.16,-6.35 -14.17,-14.18l0 -244.78c0,-7.83 6.34,-14.17 14.17,-14.17l244.9 0 0 7.15z"/>
   <path class="fil3" d="M2209.07 2509.91c0,-2.23 -1.82,-4.05 -4.06,-4.05 -2.24,0 -4.06,1.81 -4.06,4.05 0,2.24 1.82,4.05 4.06,4.05 2.24,0 4.06,-1.81 4.06,-4.05z"/>
   <path class="fil3" d="M2272.57 2509.91c0,-2.23 -1.81,-4.05 -4.05,-4.05 -2.24,0 -4.06,1.81 -4.06,4.05 0,2.24 1.81,4.05 4.06,4.05 2.23,0 4.05,-1.81 4.05,-4.05z"/>
   <path class="fil3" d="M2336.09 2509.91c0,-2.23 -1.81,-4.05 -4.05,-4.05 -2.24,0 -4.06,1.81 -4.06,4.05 0,2.24 1.82,4.05 4.06,4.05 2.24,0 4.05,-1.81 4.05,-4.05z"/>
   <path class="fil3" d="M2399.61 2509.91c0,-2.23 -1.82,-4.05 -4.06,-4.05 -2.24,0 -4.06,1.81 -4.06,4.05 0,2.24 1.81,4.05 4.06,4.05 2.24,0 4.06,-1.81 4.06,-4.05z"/>
   <path class="fil3" d="M2463.13 2509.91c0,-2.23 -1.82,-4.05 -4.06,-4.05 -2.24,0 -4.06,1.81 -4.06,4.05 0,2.24 1.81,4.05 4.06,4.05 2.24,0 4.06,-1.81 4.06,-4.05z"/>
   <path class="fil3" d="M2209.07 2453.17c0,-2.23 -1.82,-4.04 -4.06,-4.04 -2.24,0 -4.06,1.81 -4.06,4.04 0,2.24 1.82,4.06 4.06,4.06 2.24,0 4.06,-1.81 4.06,-4.06z"/>
   <path class="fil3" d="M2272.57 2453.17c0,-2.23 -1.81,-4.04 -4.05,-4.04 -2.24,0 -4.06,1.81 -4.06,4.04 0,2.24 1.81,4.06 4.06,4.06 2.23,0 4.05,-1.81 4.05,-4.06z"/>
   <path class="fil3" d="M2336.09 2453.17c0,-2.23 -1.81,-4.04 -4.05,-4.04 -2.24,0 -4.06,1.81 -4.06,4.04 0,2.24 1.82,4.06 4.06,4.06 2.24,0 4.05,-1.81 4.05,-4.06z"/>
   <path class="fil3" d="M2399.61 2453.17c0,-2.23 -1.82,-4.04 -4.06,-4.04 -2.24,0 -4.06,1.81 -4.06,4.04 0,2.24 1.81,4.06 4.06,4.06 2.24,0 4.06,-1.81 4.06,-4.06z"/>
   <path class="fil3" d="M2463.13 2453.17c0,-2.23 -1.82,-4.04 -4.06,-4.04 -2.24,0 -4.06,1.81 -4.06,4.04 0,2.24 1.81,4.06 4.06,4.06 2.24,0 4.06,-1.81 4.06,-4.06z"/>
   <path class="fil3" d="M2209.07 2396.45c0,-2.24 -1.82,-4.06 -4.06,-4.06 -2.24,0 -4.06,1.81 -4.06,4.06 0,2.24 1.82,4.05 4.06,4.05 2.24,0 4.06,-1.81 4.06,-4.05z"/>
   <path class="fil3" d="M2272.57 2396.45c0,-2.24 -1.81,-4.06 -4.05,-4.06 -2.24,0 -4.06,1.81 -4.06,4.06 0,2.24 1.81,4.05 4.06,4.05 2.23,0 4.05,-1.81 4.05,-4.05z"/>
   <path class="fil3" d="M2336.09 2396.45c0,-2.24 -1.81,-4.06 -4.05,-4.06 -2.24,0 -4.06,1.81 -4.06,4.06 0,2.24 1.82,4.05 4.06,4.05 2.24,0 4.05,-1.81 4.05,-4.05z"/>
   <path class="fil3" d="M2399.61 2396.45c0,-2.24 -1.82,-4.06 -4.06,-4.06 -2.24,0 -4.06,1.81 -4.06,4.06 0,2.24 1.81,4.05 4.06,4.05 2.24,0 4.06,-1.81 4.06,-4.05z"/>
   <path class="fil3" d="M2463.13 2396.45c0,-2.24 -1.82,-4.06 -4.06,-4.06 -2.24,0 -4.06,1.81 -4.06,4.06 0,2.24 1.81,4.05 4.06,4.05 2.24,0 4.06,-1.81 4.06,-4.05z"/>
   <path class="fil3" d="M2209.07 2339.72c0,-2.24 -1.82,-4.06 -4.06,-4.06 -2.24,0 -4.06,1.82 -4.06,4.06 0,2.24 1.82,4.05 4.06,4.05 2.24,0 4.06,-1.81 4.06,-4.05z"/>
   <path class="fil3" d="M2272.57 2339.72c0,-2.24 -1.81,-4.06 -4.05,-4.06 -2.24,0 -4.06,1.82 -4.06,4.06 0,2.24 1.81,4.05 4.06,4.05 2.23,0 4.05,-1.81 4.05,-4.05z"/>
   <path class="fil3" d="M2336.09 2339.72c0,-2.24 -1.81,-4.06 -4.05,-4.06 -2.24,0 -4.06,1.82 -4.06,4.06 0,2.24 1.82,4.05 4.06,4.05 2.24,0 4.05,-1.81 4.05,-4.05z"/>
   <path class="fil3" d="M2399.61 2339.72c0,-2.24 -1.82,-4.06 -4.06,-4.06 -2.24,0 -4.06,1.82 -4.06,4.06 0,2.24 1.81,4.05 4.06,4.05 2.24,0 4.06,-1.81 4.06,-4.05z"/>
   <path class="fil3" d="M2463.13 2339.72c0,-2.24 -1.82,-4.06 -4.06,-4.06 -2.24,0 -4.06,1.82 -4.06,4.06 0,2.24 1.81,4.05 4.06,4.05 2.24,0 4.06,-1.81 4.06,-4.05z"/>
   <path class="fil3" d="M2209.07 2282.98c0,-2.23 -1.82,-4.05 -4.06,-4.05 -2.24,0 -4.06,1.82 -4.06,4.05 0,2.25 1.82,4.06 4.06,4.06 2.24,0 4.06,-1.81 4.06,-4.06z"/>
   <path class="fil3" d="M2272.57 2282.98c0,-2.23 -1.81,-4.05 -4.05,-4.05 -2.24,0 -4.06,1.82 -4.06,4.05 0,2.25 1.81,4.06 4.06,4.06 2.23,0 4.05,-1.81 4.05,-4.06z"/>
   <path class="fil3" d="M2336.09 2282.98c0,-2.23 -1.81,-4.05 -4.05,-4.05 -2.24,0 -4.06,1.82 -4.06,4.05 0,2.25 1.82,4.06 4.06,4.06 2.24,0 4.05,-1.81 4.05,-4.06z"/>
   <path class="fil3" d="M2399.61 2282.98c0,-2.23 -1.82,-4.05 -4.06,-4.05 -2.24,0 -4.06,1.82 -4.06,4.05 0,2.25 1.81,4.06 4.06,4.06 2.24,0 4.06,-1.81 4.06,-4.06z"/>
   <path class="fil3" d="M2463.13 2282.98c0,-2.23 -1.82,-4.05 -4.06,-4.05 -2.24,0 -4.06,1.82 -4.06,4.05 0,2.25 1.81,4.06 4.06,4.06 2.24,0 4.06,-1.81 4.06,-4.06z"/>
   <path class="fil3" d="M2209.07 2226.25c0,-2.23 -1.82,-4.05 -4.06,-4.05 -2.24,0 -4.06,1.81 -4.06,4.05 0,2.24 1.82,4.06 4.06,4.06 2.24,0 4.06,-1.81 4.06,-4.06z"/>
   <path class="fil3" d="M2272.57 2226.25c0,-2.23 -1.81,-4.05 -4.05,-4.05 -2.24,0 -4.06,1.81 -4.06,4.05 0,2.24 1.81,4.06 4.06,4.06 2.23,0 4.05,-1.81 4.05,-4.06z"/>
   <path class="fil3" d="M2336.09 2226.25c0,-2.23 -1.81,-4.05 -4.05,-4.05 -2.24,0 -4.06,1.81 -4.06,4.05 0,2.24 1.82,4.06 4.06,4.06 2.24,0 4.05,-1.81 4.05,-4.06z"/>
   <path class="fil3" d="M2399.61 2226.25c0,-2.23 -1.82,-4.05 -4.06,-4.05 -2.24,0 -4.06,1.81 -4.06,4.05 0,2.24 1.81,4.06 4.06,4.06 2.24,0 4.06,-1.81 4.06,-4.06z"/>
   <path class="fil3" d="M2463.13 2226.25c0,-2.23 -1.82,-4.05 -4.06,-4.05 -2.24,0 -4.06,1.81 -4.06,4.05 0,2.24 1.81,4.06 4.06,4.06 2.24,0 4.06,-1.81 4.06,-4.06z"/>
   <path class="fil2" d="M820.59 906.93l-87.5 61.65c-2.47,1.75 -5.77,1.75 -8.24,0l-83.38 -58.75 -83.39 58.75c-2.47,1.75 -5.77,1.75 -8.25,0l-83.38 -58.75 -83.39 58.75c-2.47,1.75 -5.78,1.75 -8.25,0l-83.38 -58.75 -83.39 58.75c-2.48,1.75 -5.78,1.75 -8.25,0l-87.52 -61.65c-3.24,-2.28 -4.01,-6.74 -1.73,-9.98 2.28,-3.23 6.74,-4 9.98,-1.72l83.4 58.75 83.39 -58.75c2.48,-1.74 5.78,-1.74 8.26,0l83.37 58.75 83.39 -58.75c2.47,-1.74 5.78,-1.74 8.25,0l83.39 58.75 83.38 -58.75c2.48,-1.74 5.78,-1.74 8.25,0l83.38 58.75 83.37 -58.75c3.23,-2.28 7.7,-1.5 9.98,1.72 2.27,3.24 1.5,7.7 -1.73,9.97z"/>
   <path class="fil2" d="M820.59 851.44l-87.5 61.65c-2.47,1.74 -5.77,1.74 -8.24,0l-83.38 -58.74 -83.39 58.74c-2.47,1.74 -5.77,1.74 -8.25,0l-83.38 -58.74 -83.39 58.74c-2.47,1.74 -5.78,1.74 -8.25,0l-83.38 -58.74 -83.39 58.74c-2.48,1.74 -5.78,1.74 -8.25,0l-87.52 -61.65c-3.24,-2.28 -4.01,-6.74 -1.73,-9.97 2.28,-3.23 6.74,-4 9.98,-1.73l83.4 58.75 83.39 -58.75c2.48,-1.74 5.78,-1.74 8.26,0l83.37 58.75 83.39 -58.75c2.47,-1.74 5.78,-1.74 8.25,0l83.39 58.75 83.38 -58.75c2.48,-1.74 5.78,-1.74 8.25,0l83.38 58.75 83.37 -58.75c3.23,-2.28 7.7,-1.5 9.98,1.73 2.27,3.23 1.5,7.69 -1.73,9.97z"/>
   <path class="fil1" d="M3334.35 718.67c0,180.04 146.02,325.99 326.15,325.99 180.13,0 326.15,-145.95 326.15,-325.99 0,-180.04 -146.02,-325.99 -326.15,-325.99 -180.13,0 -326.15,145.95 -326.15,325.99z"/>
   <path class="fil2" d="M3451.65 601.43l7.16 0c0,88.07 35.69,167.73 93.43,225.45 57.75,57.71 137.45,93.38 225.56,93.38 88.11,-0 167.81,-35.67 225.56,-93.38 57.73,-57.72 93.43,-137.39 93.43,-225.45 -0,-88.06 -35.7,-167.73 -93.43,-225.45 -57.75,-57.71 -137.45,-93.38 -225.56,-93.38 -88.11,0 -167.81,35.67 -225.56,93.38 -57.74,57.72 -93.43,137.39 -93.43,225.45l-14.32 0c0.01,-184 149.23,-333.14 333.32,-333.15 184.09,0.01 333.3,149.15 333.31,333.15 -0.01,184 -149.22,333.14 -333.31,333.15 -184.09,-0.01 -333.31,-149.15 -333.32,-333.15l7.16 0z"/>
   <path class="fil2" d="M3620.45 601.43l7.16 0c0,41.48 16.8,78.96 43.99,106.15 27.2,27.17 64.71,43.97 106.21,43.97 41.49,-0 79,-16.8 106.2,-43.97 27.19,-27.19 43.98,-64.68 43.99,-106.15 -0.01,-41.48 -16.81,-78.96 -43.99,-106.15 -27.21,-27.18 -64.71,-43.97 -106.2,-43.97 -41.5,0 -79.01,16.8 -106.21,43.97 -27.19,27.19 -43.98,64.68 -43.99,106.15l-14.32 0c0,-90.81 73.66,-164.43 164.52,-164.44 90.85,0 164.51,73.62 164.51,164.44 -0,90.81 -73.66,164.43 -164.51,164.44 -90.86,-0 -164.51,-73.62 -164.52,-164.44l7.16 0z"/>
   <path class="fil1" d="M1703.51 1682.14c0,-132.61 -107.55,-240.12 -240.23,-240.12 -132.68,0 -240.24,107.5 -240.24,240.12 0,132.62 107.56,240.12 240.24,240.12 132.69,0 240.23,-107.5 240.23,-240.12z"/>
   <path class="fil2" d="M1617.11 1768.5l-7.16 0c-0,-64.35 -26.08,-122.55 -68.27,-164.73 -42.2,-42.17 -100.43,-68.23 -164.81,-68.23 -64.38,0 -122.6,26.06 -164.8,68.23 -42.19,42.18 -68.26,100.38 -68.27,164.73 0,64.35 26.07,122.55 68.27,164.73 42.2,42.17 100.43,68.23 164.8,68.23 64.39,0 122.61,-26.06 164.81,-68.23 42.19,-42.18 68.26,-100.38 68.27,-164.73l14.32 0c-0,136.56 -110.76,247.27 -247.4,247.28 -136.63,-0.01 -247.39,-110.71 -247.39,-247.28 0,-136.57 110.76,-247.27 247.39,-247.27 136.64,0 247.4,110.7 247.4,247.27l-7.16 0z"/>
   <path class="fil2" d="M1492.78 1768.5l-7.15 0c-0,-30.04 -12.17,-57.17 -31.86,-76.86 -19.7,-19.68 -46.84,-31.83 -76.89,-31.83 -30.05,0 -57.19,12.16 -76.89,31.83 -19.69,19.69 -31.85,46.83 -31.85,76.86 0,30.03 12.16,57.16 31.85,76.86 19.7,19.68 46.84,31.83 76.89,31.83 30.05,0 57.2,-12.16 76.89,-31.83 19.7,-19.7 31.86,-46.83 31.86,-76.86l14.32 0c-0.01,67.93 -55.1,123 -123.07,123 -67.96,-0.01 -123.06,-55.07 -123.06,-123 0,-67.94 55.1,-123 123.06,-123 67.97,0 123.07,55.07 123.07,123l-7.17 0z"/>
   <path class="fil2" d="M2553.02 2206.89l5.06 -5.06 358.34 358.16 -20.25 0 -348.22 -348.04 0.01 0.01 5.06 -5.07zm500.38 353.11l358.33 -358.16c1.94,-1.94 2.89,-4.42 2.89,-6.96 -0.01,-2.55 -0.95,-5.03 -2.89,-6.97l-419.85 -419.68c-1.94,-1.93 -4.43,-2.87 -6.97,-2.89 -2.55,0.02 -5.03,0.96 -6.97,2.89l-419.86 419.68 -0.01 0c-1.95,1.95 -2.89,4.42 -2.89,6.96 0.01,2.54 0.94,5.01 2.89,6.96l0.01 0 -5.06 5.06 -5.06 5.07c-4.72,-4.7 -7.12,-10.93 -7.11,-17.09 -0.01,-6.17 2.39,-12.4 7.11,-17.09l-0.01 0.01 419.87 -419.68c4.7,-4.71 10.93,-7.09 17.09,-7.07 6.16,-0.01 12.39,2.37 17.09,7.07l419.84 419.68c4.71,4.7 7.09,10.93 7.08,17.09 0.01,6.16 -2.37,12.39 -7.08,17.08l-348.2 348.04 -20.25 0z"/>
   <path class="fil3" d="M2767.99 2231.74l180.01 179.93c20.39,20.37 53.43,20.37 73.81,0l180 -179.93c20.39,-20.34 20.39,-53.39 0,-73.76l-180 -179.93c-20.38,-20.37 -53.43,-20.37 -73.81,0l-180.01 179.93c-20.39,20.37 -20.39,53.42 0,73.76z"/>
   <path class="fil1" d="M1276.18 1242.56c-3.66,-3.65 -9.59,-3.65 -13.24,0 -3.66,3.66 -3.66,9.59 0,13.24 3.66,3.67 9.58,3.67 13.24,0 3.66,-3.65 3.66,-9.57 0,-13.24z"/>
   <path class="fil1" d="M1379.94 1138.86c-3.66,-3.66 -9.59,-3.66 -13.24,0 -3.66,3.65 -3.66,9.58 0,13.23 3.65,3.65 9.58,3.65 13.24,0 3.65,-3.65 3.65,-9.59 0,-13.23z"/>
   <path class="fil1" d="M1483.7 1035.15c-3.66,-3.66 -9.59,-3.66 -13.25,0 -3.66,3.65 -3.66,9.58 0,13.24 3.66,3.65 9.59,3.65 13.25,0 3.66,-3.67 3.66,-9.59 0,-13.24z"/>
   <path class="fil1" d="M1587.45 931.44c-3.66,-3.65 -9.58,-3.65 -13.25,0 -3.65,3.66 -3.65,9.59 0,13.24 3.67,3.66 9.59,3.66 13.25,0 3.66,-3.65 3.66,-9.57 0,-13.24z"/>
   <path class="fil1" d="M1691.21 827.74c-3.66,-3.66 -9.59,-3.66 -13.24,0 -3.67,3.66 -3.67,9.59 0,13.24 3.65,3.66 9.58,3.66 13.24,0 3.66,-3.65 3.66,-9.57 0,-13.24z"/>
   <path class="fil1" d="M1183.46 1149.89c-3.65,-3.66 -9.58,-3.66 -13.24,0 -3.66,3.66 -3.66,9.59 0,13.24 3.66,3.66 9.59,3.66 13.24,0 3.66,-3.65 3.66,-9.57 0,-13.24z"/>
   <path class="fil1" d="M1287.23 1046.19c-3.67,-3.67 -9.59,-3.67 -13.25,0 -3.66,3.65 -3.66,9.57 0,13.24 3.66,3.65 9.58,3.65 13.25,0 3.65,-3.66 3.65,-9.59 0,-13.24z"/>
   <path class="fil1" d="M1390.97 942.48c-3.65,-3.67 -9.59,-3.67 -13.24,0 -3.65,3.65 -3.65,9.57 0,13.24 3.66,3.65 9.59,3.65 13.24,0 3.65,-3.67 3.65,-9.59 0,-13.24z"/>
   <path class="fil1" d="M1494.73 838.77c-3.66,-3.65 -9.58,-3.65 -13.24,0 -3.66,3.66 -3.66,9.59 0,13.24 3.66,3.66 9.58,3.66 13.24,0 3.67,-3.65 3.67,-9.57 0,-13.24z"/>
   <path class="fil1" d="M1598.48 735.07c-3.66,-3.65 -9.58,-3.65 -13.24,0 -3.66,3.65 -3.66,9.59 0,13.24 3.66,3.65 9.58,3.65 13.24,0 3.66,-3.65 3.66,-9.58 0,-13.24z"/>
   <path class="fil1" d="M1090.74 1057.21c-3.65,-3.65 -9.58,-3.65 -13.24,0 -3.65,3.65 -3.65,9.59 0,13.24 3.66,3.65 9.59,3.65 13.24,0 3.66,-3.65 3.66,-9.59 0,-13.24z"/>
   <path class="fil1" d="M1194.5 953.51c-3.66,-3.66 -9.59,-3.66 -13.25,0 -3.65,3.65 -3.65,9.57 0,13.24 3.66,3.65 9.59,3.65 13.25,0 3.65,-3.66 3.65,-9.58 0,-13.24z"/>
   <path class="fil1" d="M1298.26 849.8c-3.66,-3.65 -9.59,-3.65 -13.24,0 -3.66,3.67 -3.66,9.59 0,13.24 3.65,3.66 9.59,3.66 13.24,0 3.65,-3.65 3.65,-9.57 0,-13.24z"/>
   <path class="fil1" d="M1402.01 746.1c-3.65,-3.65 -9.59,-3.65 -13.24,0 -3.66,3.66 -3.66,9.58 0,13.23 3.65,3.67 9.59,3.67 13.24,0 3.65,-3.65 3.65,-9.57 0,-13.23z"/>
   <path class="fil1" d="M1505.77 642.39c-3.65,-3.65 -9.58,-3.65 -13.24,0 -3.66,3.65 -3.66,9.59 0,13.24 3.66,3.66 9.59,3.66 13.24,0 3.66,-3.65 3.66,-9.59 0,-13.24z"/>
   <path class="fil1" d="M998.03 964.54c-3.65,-3.65 -9.59,-3.65 -13.24,0 -3.65,3.65 -3.65,9.58 0,13.23 3.65,3.65 9.59,3.65 13.24,0 3.66,-3.65 3.66,-9.58 0,-13.23z"/>
   <path class="fil1" d="M1101.78 860.83c-3.66,-3.65 -9.58,-3.65 -13.24,0 -3.66,3.65 -3.66,9.58 0,13.24 3.66,3.65 9.58,3.65 13.24,0 3.66,-3.66 3.66,-9.59 0,-13.24z"/>
   <path class="fil1" d="M1205.54 757.13c-3.65,-3.65 -9.59,-3.65 -13.24,0 -3.67,3.66 -3.67,9.59 0,13.24 3.65,3.66 9.59,3.66 13.24,0 3.65,-3.65 3.65,-9.58 0,-13.24z"/>
   <path class="fil1" d="M1309.3 653.43c-3.66,-3.65 -9.59,-3.65 -13.25,0 -3.65,3.65 -3.65,9.59 0,13.24 3.66,3.66 9.59,3.66 13.25,0 3.66,-3.65 3.66,-9.58 0,-13.24z"/>
   <path class="fil1" d="M1413.05 549.72c-3.66,-3.66 -9.58,-3.66 -13.25,0 -3.65,3.66 -3.65,9.57 0,13.24 3.67,3.65 9.59,3.65 13.25,0 3.66,-3.66 3.66,-9.58 0,-13.24z"/>
   <path class="fil1" d="M905.31 871.87c-3.65,-3.67 -9.59,-3.67 -13.24,0 -3.66,3.65 -3.66,9.58 0,13.24 3.65,3.65 9.59,3.65 13.24,0 3.66,-3.66 3.66,-9.58 0,-13.24z"/>
   <path class="fil1" d="M1009.06 768.17c-3.65,-3.67 -9.58,-3.67 -13.24,0 -3.65,3.65 -3.65,9.57 0,13.24 3.67,3.65 9.59,3.65 13.24,0 3.66,-3.66 3.66,-9.59 0,-13.24z"/>
   <path class="fil1" d="M1112.83 664.46c-3.67,-3.65 -9.59,-3.65 -13.24,0 -3.66,3.66 -3.66,9.58 0,13.24 3.65,3.66 9.58,3.66 13.24,0 3.65,-3.65 3.65,-9.58 0,-13.24z"/>
   <path class="fil1" d="M1216.58 560.76c-3.66,-3.67 -9.6,-3.67 -13.25,0 -3.65,3.65 -3.65,9.58 0,13.23 3.65,3.66 9.59,3.66 13.25,0 3.65,-3.65 3.65,-9.58 0,-13.23z"/>
   <path class="fil1" d="M1320.33 457.05c-3.66,-3.66 -9.59,-3.66 -13.24,0 -3.65,3.65 -3.65,9.58 0,13.24 3.65,3.66 9.58,3.66 13.24,0 3.67,-3.66 3.67,-9.58 0,-13.24z"/>
   <path class="fil1" d="M812.59 779.2c-3.66,-3.66 -9.59,-3.66 -13.24,0 -3.67,3.65 -3.67,9.58 0,13.24 3.65,3.65 9.58,3.65 13.24,0 3.65,-3.66 3.65,-9.58 0,-13.24z"/>
   <path class="fil1" d="M916.35 675.49c-3.65,-3.66 -9.58,-3.66 -13.24,0 -3.65,3.65 -3.65,9.58 0,13.23 3.67,3.66 9.59,3.66 13.24,0 3.66,-3.65 3.66,-9.58 0,-13.23z"/>
   <path class="fil1" d="M1020.11 571.79c-3.66,-3.65 -9.59,-3.65 -13.25,0 -3.65,3.65 -3.65,9.59 0,13.24 3.66,3.65 9.59,3.65 13.25,0 3.65,-3.65 3.65,-9.59 0,-13.24z"/>
   <path class="fil1" d="M1123.86 468.08c-3.66,-3.66 -9.59,-3.66 -13.24,0 -3.66,3.66 -3.66,9.58 0,13.24 3.65,3.66 9.58,3.66 13.24,0 3.65,-3.65 3.65,-9.58 0,-13.24z"/>
   <path class="fil1" d="M1227.61 364.37c-3.65,-3.66 -9.58,-3.66 -13.24,0 -3.66,3.66 -3.66,9.59 0,13.24 3.66,3.65 9.59,3.65 13.24,0 3.67,-3.66 3.67,-9.58 0,-13.24z"/>
   <polygon class="fil3" points="876.94,523.31 962.99,609.32 1049.04,523.31 1116.54,590.77 1030.48,676.78 1116.54,762.8 1049.04,830.25 962.99,744.24 876.94,830.25 809.44,762.8 895.5,676.78 809.44,590.77 "/>
   <path class="fil2" d="M888.07 458.12l5.07 -5.06 80.99 80.95 80.98 -80.95c2.8,-2.79 7.33,-2.79 10.13,0l67.49 67.46c1.33,1.33 2.1,3.18 2.1,5.06 0,1.89 -0.77,3.73 -2.1,5.06l-80.99 80.95 80.99 80.95c2.8,2.79 2.8,7.33 0,10.11l-67.49 67.46c-1.33,1.33 -3.18,2.09 -5.06,2.09 -1.88,0 -3.72,-0.76 -5.06,-2.09l-80.98 -80.95 -80.99 80.95c-1.33,1.33 -3.18,2.09 -5.07,2.09 -1.88,0 -3.72,-0.76 -5.06,-2.09l-67.48 -67.46c-1.33,-1.33 -2.1,-3.17 -2.1,-5.06 0,-1.89 0.76,-3.73 2.1,-5.06l80.99 -80.95 -80.99 -80.95c-1.33,-1.33 -2.1,-3.18 -2.1,-5.06 0,-1.88 0.76,-3.72 2.1,-5.06l67.48 -67.46c2.8,-2.79 7.33,-2.79 10.13,0l-5.07 5.06 5.07 5.06 -62.43 62.39 80.99 80.95c1.34,1.33 2.1,3.18 2.1,5.07 0,1.88 -0.76,3.72 -2.1,5.06l-80.99 80.95 57.36 57.34 80.99 -80.95c2.8,-2.79 7.33,-2.79 10.13,0l80.98 80.95 57.37 -57.34 -80.99 -80.95c-1.33,-1.33 -2.09,-3.18 -2.09,-5.06 0,-1.89 0.76,-3.74 2.09,-5.07l80.99 -80.95 -57.37 -57.34 -80.98 80.95c-2.8,2.8 -7.33,2.8 -10.13,0l-86.05 -86.01 5.06 -5.06 5.07 5.06 -5.07 -5.06z"/>
   <polygon class="fil3" points="3633.11,1248.81 3719.16,1334.82 3805.21,1248.81 3872.7,1316.27 3786.65,1402.28 3872.7,1488.29 3805.21,1555.75 3719.16,1469.74 3633.11,1555.75 3565.61,1488.29 3651.66,1402.28 3565.61,1316.27 "/>
   <path class="fil2" d="M3644.24 1183.62l5.06 -5.06 80.99 80.96 80.99 -80.96c2.8,-2.79 7.32,-2.79 10.12,0l67.49 67.46c1.33,1.33 2.1,3.17 2.1,5.06 0,1.89 -0.77,3.73 -2.1,5.06l-80.99 80.95 80.99 80.95c2.8,2.8 2.8,7.33 0,10.12l-67.49 67.46c-1.33,1.33 -3.18,2.09 -5.07,2.09 -1.88,0 -3.72,-0.76 -5.06,-2.09l-80.99 -80.95 -80.99 80.95c-1.33,1.33 -3.17,2.09 -5.06,2.09 -1.89,0 -3.74,-0.76 -5.07,-2.09l-67.5 -67.46c-2.79,-2.8 -2.79,-7.32 0.01,-10.12l80.99 -80.95 -80.99 -80.95c-1.34,-1.33 -2.1,-3.17 -2.1,-5.06 0,-1.89 0.76,-3.72 2.1,-5.06l67.49 -67.46c2.8,-2.79 7.33,-2.79 10.12,0l-5.06 5.06 5.06 5.06 -62.43 62.39 80.99 80.95c1.33,1.33 2.1,3.17 2.1,5.06 0,1.89 -0.76,3.73 -2.1,5.06l-80.99 80.95 57.37 57.34 80.98 -80.96c2.79,-2.79 7.33,-2.79 10.13,0l80.98 80.96 57.37 -57.34 -80.99 -80.95c-1.33,-1.33 -2.09,-3.18 -2.09,-5.06 0,-1.88 0.76,-3.72 2.09,-5.06l80.99 -80.95 -57.37 -57.33 -80.98 80.95c-1.34,1.34 -3.18,2.1 -5.07,2.1 -1.88,0 -3.72,-0.76 -5.06,-2.1l-86.05 -86 5.07 -5.06 5.06 5.06 -5.06 -5.06z"/>
   <polygon class="fil0" points="3044.06,1650.79 1610.8,453.85 1759.13,2367.48 "/>
   <polygon class="fil1" points="3112.34,1616.69 1679.07,419.75 1827.4,2333.38 "/>
   <path class="fil2" d="M3150.3 1253.07l-4.34 5.69 -1311.44 -998.24 250.69 1734.05 1060.96 -747.34 4.12 5.85 -4.34 5.69 4.34 -5.69 4.12 5.85 -1070.5 754.07c-2.03,1.43 -4.67,1.71 -6.96,0.72 -2.28,-0.99 -3.89,-3.09 -4.26,-5.55l-254.86 -1762.91c-0.41,-2.88 0.94,-5.71 3.46,-7.19 2.51,-1.48 5.64,-1.3 7.96,0.47l1325.37 1008.84c1.81,1.37 2.87,3.55 2.82,5.83 -0.05,2.27 -1.18,4.41 -3.04,5.71l-4.12 -5.85z"/>
   <path class="fil2" d="M1824.92 244.22l5.59 -4.46c0.97,1.22 2.17,2.95 4.03,5.7 7.09,10.52 22.54,34.5 44.25,68.61 151.96,238.65 609.79,970.84 609.8,970.85 1.38,2.21 1.44,5.02 0.18,7.29l-402.73 718.42c-1.49,2.68 -4.53,4.1 -7.54,3.54 -3.02,-0.56 -5.35,-2.97 -5.79,-6.01l-254.86 -1762.91c-0.46,-3.19 1.28,-6.31 4.23,-7.59 2.96,-1.28 6.42,-0.42 8.44,2.1l-5.59 4.46 7.09 -1.02 251.85 1742.03 392.41 -700.02 6.24 3.5 -6.07 3.79c-0,-0.01 -2.48,-3.98 -7.16,-11.44 -35.04,-56.03 -192.87,-308.32 -344.32,-549.59 -75.72,-120.63 -149.86,-238.51 -206.25,-327.71 -28.2,-44.6 -51.96,-82.03 -69.26,-109.04 -8.65,-13.5 -15.68,-24.41 -20.83,-32.27 -2.57,-3.94 -4.69,-7.12 -6.28,-9.47 -1.57,-2.31 -2.72,-3.93 -3,-4.27l5.58 -4.48 7.09 -1.02 -7.09 1.02z"/>
   <path class="fil2" d="M3150.3 1253.07l0.38 7.14 -667.78 35.65c-2.61,0.14 -5.06,-1.13 -6.44,-3.33l-657.59 -1044.49c-1.85,-2.93 -1.32,-6.76 1.23,-9.09 2.56,-2.33 6.42,-2.5 9.17,-0.41l1325.37 1008.84c2.39,1.81 3.39,4.93 2.5,7.8 -0.89,2.87 -3.46,4.88 -6.46,5.04l-0.38 -7.14 -4.34 5.69 -1293.91 -984.9 634.29 1007.48 663.57 -35.42 0.39 7.15 -4.34 5.69 4.34 -5.69z"/>
   <path class="fil2" d="M2638.51 429.33c9.29,-17.56 13.6,-36.08 13.61,-54.51 0,-20.91 -5.67,-41.61 -16.28,-59.58 -10.63,-17.99 -25.99,-33.21 -45.93,-43.78 -17.57,-9.28 -36.1,-13.59 -54.54,-13.61 -20.92,-0 -41.63,5.67 -59.62,16.27 -18,10.63 -33.22,25.98 -43.78,45.91 -12.33,23.29 -41.21,32.17 -64.51,19.85 -23.3,-12.32 -32.19,-41.19 -19.86,-64.47 18.96,-35.83 47.03,-64.26 79.69,-83.47 32.68,-19.24 70,-29.48 108.08,-29.48 33.5,-0.02 67.66,8 99.19,24.69 35.84,18.94 64.28,47 83.51,79.65 19.25,32.66 29.48,69.96 29.49,108.02 0.02,33.48 -8,67.63 -24.7,99.13 -12.33,23.29 -41.21,32.17 -64.51,19.85 -23.3,-12.32 -32.19,-41.2 -19.85,-64.48z"/>
   <path class="fil1" d="M1072.07 1246.62c4.71,-0.55 8.09,-4.83 7.56,-9.56 -0.56,-4.71 -4.86,-8.09 -9.57,-7.55 -4.74,0.55 -8.1,4.82 -7.56,9.55 0.52,4.41 4.22,7.62 8.53,7.62l1.04 -0.06zm67.02 1.95c1.69,-4.46 -0.52,-9.42 -4.96,-11.11 -4.45,-1.69 -9.42,0.52 -11.15,4.97 -1.69,4.45 0.56,9.41 4.97,11.11 1.04,0.4 2.07,0.58 3.11,0.58 3.44,0 6.72,-2.1 8.03,-5.54zm-119.75 17.82c3.93,-2.67 4.93,-8.04 2.23,-11.97 -2.69,-3.9 -8.07,-4.9 -11.98,-2.21 -3.93,2.7 -4.93,8.04 -2.24,11.97 1.67,2.44 4.37,3.74 7.13,3.74 1.67,0 3.36,-0.5 4.86,-1.53zm167.05 20.04c3.56,-3.16 3.9,-8.58 0.74,-12.14 -3.13,-3.59 -8.58,-3.91 -12.15,-0.78 -3.56,3.16 -3.9,8.59 -0.77,12.18 1.71,1.91 4.07,2.9 6.48,2.9 2.01,0 4.05,-0.72 5.69,-2.15zm-204.56 21.98c2.21,-4.19 0.6,-9.37 -3.59,-11.62 -4.2,-2.24 -9.42,-0.63 -11.63,3.56 -2.24,4.22 -0.63,9.42 3.55,11.65 1.3,0.69 2.68,1.01 4.03,1.01 3.1,0 6.09,-1.66 7.64,-4.59zm228.88 33.46c4.64,-1.11 7.48,-5.76 6.36,-10.38 -1.13,-4.62 -5.8,-7.47 -10.43,-6.35 -4.63,1.12 -7.44,5.8 -6.31,10.43 0.94,3.94 4.48,6.57 8.35,6.57 0.69,0 1.35,-0.09 2.03,-0.27zm-242.56 21.63l0 -0.46c0.04,-4.76 -3.81,-8.64 -8.58,-8.64 -4.76,-0.03 -8.61,3.82 -8.64,8.56l0 0.55c0,4.76 3.84,8.61 8.61,8.61 4.77,0 8.61,-3.85 8.61,-8.61zm248.79 32.52c1.12,-4.63 -1.69,-9.3 -6.31,-10.42 -4.59,-1.15 -9.28,1.67 -10.43,6.29 -1.14,4.59 1.7,9.28 6.29,10.42 0.7,0.18 1.41,0.26 2.1,0.26 3.85,0 7.38,-2.65 8.35,-6.55zm-238.96 33.79c4.22,-2.25 5.83,-7.44 3.62,-11.66 -2.21,-4.19 -7.41,-5.83 -11.63,-3.61 -4.23,2.2 -5.83,7.43 -3.62,11.62 1.55,2.96 4.54,4.63 7.64,4.63 1.35,0 2.73,-0.32 3.99,-0.98zm208.81 23.31c3.19,-3.56 2.84,-9.02 -0.69,-12.17 -3.56,-3.16 -9.02,-2.84 -12.19,0.72 -3.15,3.55 -2.83,9.02 0.72,12.17 1.63,1.46 3.67,2.18 5.71,2.18 2.38,0 4.74,-0.98 6.43,-2.9zm-165.64 19.21c2.69,-3.91 1.72,-9.28 -2.19,-12.01 -3.91,-2.7 -9.28,-1.72 -11.97,2.18 -2.73,3.91 -1.76,9.28 2.15,12.01 1.52,1.03 3.22,1.52 4.91,1.52 2.73,0 5.43,-1.28 7.1,-3.69zm112.48 17.41c4.46,-1.7 6.69,-6.66 5,-11.1 -1.67,-4.46 -6.63,-6.69 -11.08,-5.03 -4.46,1.69 -6.7,6.66 -5.03,11.11 1.32,3.44 4.6,5.56 8.07,5.56 1.01,0 2.04,-0.17 3.05,-0.54zm-54.54 0.18c0.57,-4.72 -2.78,-9.02 -7.5,-9.6 -4.73,-0.57 -9.02,2.79 -9.59,7.53 -0.57,4.7 2.79,9.01 7.5,9.58l1.06 0.06c4.28,0 8.02,-3.21 8.54,-7.57z"/>
   <path class="fil1" d="M1074.56 1267.85c3.88,-0.43 6.64,-3.93 6.2,-7.8 -0.45,-3.88 -3.96,-6.63 -7.84,-6.17 -3.84,0.46 -6.63,3.96 -6.17,7.81 0.43,3.58 3.47,6.23 7,6.23l0.81 -0.07zm54.85 1.61c1.4,-3.61 -0.43,-7.7 -4.06,-9.1 -3.64,-1.38 -7.72,0.44 -9.11,4.08 -1.41,3.62 0.44,7.7 4.06,9.1 0.83,0.31 1.69,0.46 2.53,0.46 2.84,0 5.5,-1.73 6.57,-4.54zm-97.96 14.61c3.22,-2.2 4.02,-6.59 1.81,-9.81 -2.21,-3.22 -6.57,-4.02 -9.8,-1.82 -3.22,2.2 -4.02,6.58 -1.84,9.8 1.38,1.99 3.59,3.08 5.83,3.08 1.38,0 2.76,-0.4 3.99,-1.24zm136.67 16.37c2.94,-2.56 3.19,-7.03 0.6,-9.93 -2.55,-2.93 -7,-3.22 -9.94,-0.63 -2.93,2.59 -3.19,7.02 -0.62,9.96 1.4,1.57 3.36,2.39 5.31,2.39 1.63,0 3.3,-0.61 4.65,-1.79zm-167.37 18c1.81,-3.45 0.52,-7.69 -2.93,-9.53 -3.44,-1.81 -7.69,-0.51 -9.54,2.93 -1.83,3.44 -0.52,7.72 2.93,9.53 1.03,0.54 2.18,0.83 3.3,0.83 2.5,0 4.94,-1.38 6.23,-3.76zm187.28 27.39c3.8,-0.92 6.12,-4.74 5.17,-8.54l0.03 0c-0.94,-3.76 -4.74,-6.08 -8.53,-5.16 -3.79,0.92 -6.08,4.73 -5.19,8.52 0.8,3.22 3.67,5.37 6.86,5.37 0.54,0 1.12,-0.05 1.67,-0.19zm-198.44 17.69l-0.03 0 0 -0.12 0.03 -0.26c0,-3.9 -3.13,-7.06 -7.03,-7.09 -3.91,0 -7.07,3.13 -7.07,7.04l0 0.44c0,3.91 3.13,7.06 7.04,7.06 3.91,0 7.07,-3.16 7.07,-7.06zm203.52 26.61c0.95,-3.79 -1.38,-7.61 -5.14,-8.52 -3.78,-0.95 -7.61,1.36 -8.56,5.13 -0.91,3.77 1.38,7.61 5.17,8.53 0.57,0.15 1.11,0.21 1.7,0.21 3.16,0 6.03,-2.13 6.83,-5.34zm-195.52 27.64c3.44,-1.83 4.8,-6.08 2.96,-9.53 -1.81,-3.44 -6.06,-4.77 -9.5,-2.95 -3.46,1.8 -4.77,6.08 -2.96,9.49 1.26,2.41 3.7,3.79 6.24,3.79 1.12,0 2.24,-0.26 3.27,-0.8zm170.88 19.06c2.59,-2.91 2.32,-7.36 -0.6,-9.94 -2.91,-2.58 -7.35,-2.32 -9.94,0.58 -2.59,2.89 -2.34,7.35 0.57,9.95 1.35,1.18 3.02,1.78 4.68,1.78 1.95,0 3.87,-0.8 5.29,-2.37zm-135.56 15.72c2.21,-3.21 1.41,-7.61 -1.78,-9.81 -3.21,-2.2 -7.58,-1.41 -9.82,1.78 -2.2,3.19 -1.41,7.6 1.79,9.82 1.24,0.83 2.64,1.23 4.02,1.23 2.24,0 4.42,-1.06 5.79,-3.02zm92.05 14.24c3.64,-1.38 5.48,-5.45 4.07,-9.06 -1.35,-3.65 -5.43,-5.49 -9.07,-4.11 -3.65,1.38 -5.5,5.45 -4.11,9.07 1.09,2.85 3.76,4.56 6.61,4.56 0.83,0 1.66,-0.14 2.5,-0.45zm-44.63 0.15c0.48,-3.85 -2.27,-7.38 -6.15,-7.85 -3.85,-0.45 -7.38,2.3 -7.85,6.15 -0.45,3.87 2.3,7.38 6.15,7.83l0.86 0.06c3.5,0 6.55,-2.61 6.98,-6.2z"/>
   <path class="fil1" d="M1076.72 1286.03c3.12,-0.37 5.37,-3.21 5.02,-6.34 -0.37,-3.13 -3.21,-5.37 -6.34,-5 -3.13,0.35 -5.37,3.19 -5,6.35 0.32,2.9 2.79,5.02 5.66,5.02l0.67 -0.03zm44.45 1.29c1.12,-2.95 -0.38,-6.26 -3.31,-7.37 -2.96,-1.12 -6.26,0.34 -7.38,3.3 -1.12,2.93 0.35,6.24 3.31,7.38 0.65,0.25 1.35,0.37 2.04,0.37 2.3,0 4.45,-1.41 5.35,-3.68zm-79.38 11.83c2.58,-1.78 3.24,-5.34 1.46,-7.96 -1.78,-2.58 -5.34,-3.25 -7.92,-1.46 -2.61,1.78 -3.27,5.34 -1.5,7.93 1.13,1.63 2.9,2.49 4.72,2.49 1.11,0 2.23,-0.34 3.24,-1zm110.71 13.25c2.38,-2.09 2.61,-5.68 0.52,-8.02 -2.1,-2.39 -5.69,-2.62 -8.07,-0.53 -2.35,2.1 -2.58,5.69 -0.48,8.07 1.12,1.26 2.7,1.92 4.28,1.92 1.35,0 2.7,-0.46 3.76,-1.44zm-135.61 14.58c1.49,-2.78 0.43,-6.22 -2.35,-7.69 -2.79,-1.5 -6.24,-0.44 -7.73,2.35 -1.46,2.78 -0.43,6.23 2.36,7.72 0.86,0.46 1.78,0.67 2.7,0.67 2.04,0 4.02,-1.09 5.02,-3.05zm151.75 22.19c3.08,-0.74 4.94,-3.84 4.19,-6.88 -0.75,-3.07 -3.82,-4.93 -6.9,-4.22 -3.06,0.77 -4.93,3.85 -4.19,6.91 0.63,2.62 2.96,4.37 5.54,4.37 0.43,0 0.89,-0.06 1.35,-0.18zm-160.8 14.33l0 -0.32c0.03,-3.16 -2.52,-5.71 -5.69,-5.71 -3.16,-0.03 -5.71,2.52 -5.74,5.68l0.03 0.17 -0.03 0.18c0,3.15 2.58,5.71 5.71,5.71 3.16,0 5.71,-2.57 5.71,-5.71zm164.91 21.55c0.78,-3.07 -1.09,-6.17 -4.16,-6.91 -3.06,-0.75 -6.15,1.11 -6.93,4.17 -0.74,3.06 1.12,6.17 4.19,6.91 0.46,0.12 0.92,0.18 1.35,0.18 2.59,0 4.91,-1.72 5.54,-4.34zm-158.38 22.39c2.79,-1.46 3.87,-4.91 2.38,-7.72 -1.47,-2.78 -4.92,-3.85 -7.7,-2.39 -2.79,1.47 -3.88,4.91 -2.41,7.7 1.03,1.96 3.01,3.08 5.07,3.08 0.89,0 1.78,-0.24 2.65,-0.67zm138.42 15.44c2.09,-2.35 1.9,-5.94 -0.46,-8.03 -2.36,-2.1 -5.98,-1.9 -8.07,0.46 -2.09,2.34 -1.89,5.97 0.46,8.06 1.1,0.94 2.44,1.43 3.79,1.43 1.58,0 3.16,-0.63 4.28,-1.93zm-109.82 12.74c1.81,-2.61 1.15,-6.13 -1.44,-7.94 -2.59,-1.78 -6.15,-1.15 -7.96,1.44 -1.78,2.61 -1.15,6.17 1.44,7.94 1,0.69 2.12,1.01 3.27,1.01 1.81,0 3.59,-0.83 4.69,-2.44zm74.58 11.55c2.96,-1.12 4.42,-4.43 3.3,-7.35 -1.12,-2.95 -4.39,-4.44 -7.35,-3.33 -2.96,1.12 -4.43,4.42 -3.33,7.34 0.86,2.3 3.04,3.71 5.34,3.71 0.69,0 1.38,-0.11 2.04,-0.37zm-36.15 0.11c0.37,-3.13 -1.85,-5.97 -4.97,-6.34 -3.13,-0.38 -6,1.83 -6.38,4.99 -0.37,3.1 1.87,5.97 5,6.34l0.69 0.03c2.84,0 5.31,-2.13 5.66,-5.02z"/>
   <path class="fil1" d="M2511.18 122.91c5.83,6.31 15.69,6.7 22.02,0.88 6.31,-5.83 6.71,-15.68 0.88,-22 -5.84,-6.32 -15.7,-6.72 -22.02,-0.88 -6.32,5.83 -6.71,15.68 -0.88,22z"/>
   <path class="fil1" d="M2310.46 308.14c5.83,6.32 15.69,6.71 22.01,0.87 6.31,-5.83 6.71,-15.68 0.88,-22 -5.84,-6.31 -15.69,-6.71 -22.02,-0.87 -6.31,5.83 -6.71,15.68 -0.87,22z"/>
   <path class="fil3" d="M2243.56 369.89c5.84,6.32 15.69,6.71 22.02,0.88 6.31,-5.83 6.71,-15.68 0.87,-22 -5.83,-6.31 -15.69,-6.71 -22.01,-0.88 -6.32,5.83 -6.71,15.69 -0.88,22z"/>
   <path class="fil1" d="M2388.19 123.94c5.83,6.31 15.69,6.7 22,0.87 6.32,-5.83 6.71,-15.68 0.88,-22 -5.83,-6.32 -15.69,-6.71 -22.02,-0.88 -6.32,5.84 -6.71,15.69 -0.87,22z"/>
   <path class="fil1" d="M2321.28 185.68c5.84,6.32 15.69,6.71 22.01,0.88 6.32,-5.83 6.71,-15.69 0.88,-22.01 -5.83,-6.31 -15.69,-6.7 -22.01,-0.87 -6.32,5.83 -6.71,15.68 -0.88,22z"/>
   <path class="fil1" d="M2399.01 1.47c5.83,6.32 15.69,6.71 22.01,0.88 0.79,-0.72 1.48,-1.52 2.09,-2.35l-25.3 0c0.37,0.51 0.77,1 1.2,1.48z"/>
   <path class="fil3" d="M2332.1 63.22c5.84,6.32 15.69,6.72 22.01,0.88 6.32,-5.83 6.71,-15.68 0.88,-22 -5.84,-6.31 -15.69,-6.71 -22.01,-0.87 -6.31,5.83 -6.71,15.68 -0.88,22z"/>
   <path class="fil1" d="M2265.2 124.97c5.83,6.31 15.68,6.71 22.01,0.87 6.31,-5.83 6.71,-15.68 0.87,-22 -5.83,-6.32 -15.69,-6.71 -22.01,-0.88 -6.31,5.83 -6.71,15.69 -0.87,22z"/>
   <path class="fil1" d="M2198.3 186.71c5.83,6.32 15.68,6.71 22,0.87 6.32,-5.83 6.72,-15.68 0.88,-22 -5.84,-6.32 -15.69,-6.71 -22.02,-0.87 -6.32,5.83 -6.71,15.68 -0.87,22z"/>
   <path class="fil1" d="M2131.38 248.46c5.84,6.32 15.69,6.71 22.02,0.88 6.31,-5.83 6.71,-15.69 0.88,-22 -5.84,-6.33 -15.7,-6.71 -22.02,-0.88 -6.32,5.83 -6.7,15.69 -0.88,22z"/>
   <path class="fil1" d="M2209.11 64.25c5.83,6.33 15.69,6.72 22.01,0.88 6.32,-5.83 6.72,-15.68 0.87,-22 -5.83,-6.32 -15.69,-6.71 -22,-0.88 -6.32,5.83 -6.72,15.69 -0.88,22z"/>
   <path class="fil3" d="M2142.21 126c5.83,6.32 15.68,6.71 22,0.88 6.32,-5.83 6.71,-15.68 0.88,-22 -5.84,-6.32 -15.69,-6.72 -22,-0.88 -6.32,5.83 -6.72,15.69 -0.87,22z"/>
   <path class="fil1" d="M146.6 1993.91c-9.18,9.18 -16,19.69 -20.56,30.93 -4.56,11.24 -6.85,23.22 -6.85,35.21 0,11.99 2.29,23.98 6.85,35.22 4.56,11.24 11.38,21.75 20.56,30.93 9.19,9.17 19.7,15.98 30.96,20.55 11.25,4.56 23.23,6.85 35.22,6.85 12,0 23.98,-2.29 35.22,-6.85 11.26,-4.56 21.76,-11.37 30.94,-20.55l33.75 33.72c-13.74,13.75 -29.74,24.14 -46.76,31.03 -17.03,6.9 -35.1,10.34 -53.17,10.35 -18.06,-0.01 -36.13,-3.45 -53.17,-10.35 -17.03,-6.89 -33.01,-17.28 -46.76,-31.02 -13.75,-13.74 -24.13,-29.72 -31.04,-46.74 -6.91,-17.02 -10.35,-35.08 -10.35,-53.14 0,-18.05 3.44,-36.11 10.35,-53.13 6.91,-17.02 17.29,-33 31.04,-46.73l33.75 33.72z"/>
   <path class="fil2" d="M133.24 1983.67c-21.56,21.54 -32.3,49.71 -32.31,77.94 0.01,28.24 10.75,56.41 32.31,77.95 21.54,21.54 49.73,32.27 77.98,32.28 28.24,-0.01 56.43,-10.74 77.98,-32.28 2.79,-2.8 7.33,-2.8 10.13,0 2.8,2.79 2.8,7.32 0,10.11 -24.31,24.31 -56.24,36.49 -88.11,36.48 -31.86,0.01 -63.8,-12.17 -88.1,-36.48 -24.32,-24.3 -36.5,-56.21 -36.5,-88.06 -0.01,-31.84 12.17,-63.76 36.5,-88.06 2.8,-2.79 7.33,-2.79 10.13,0 2.8,2.8 2.8,7.32 0,10.12z"/>
   <path class="fil3" d="M304.06 1906.28c32.84,0 59.55,26.7 59.55,59.53 0,32.82 -26.71,59.51 -59.55,59.51 -32.82,0 -59.55,-26.69 -59.55,-59.51 0,-32.83 26.72,-59.53 59.55,-59.53zm0 171.95c62.04,0 112.48,-50.43 112.48,-112.42 0,-62 -50.45,-112.43 -112.48,-112.43 -62.02,0 -112.48,50.43 -112.48,112.43 0,61.99 50.47,112.42 112.48,112.42z"/>
   <path class="fil2" d="M426.47 1783.94l0 -7.16c36.81,0.01 66.7,29.88 66.71,66.67 -0.01,36.79 -29.9,66.67 -66.71,66.68 -36.79,-0.01 -66.69,-29.89 -66.71,-66.68 0.02,-36.79 29.92,-66.66 66.71,-66.67l0 14.31c-14.45,0.01 -27.51,5.86 -37.02,15.36 -9.5,9.51 -15.37,22.56 -15.37,37 0,14.46 5.86,27.5 15.37,37.01 9.51,9.5 22.57,15.35 37.02,15.35 14.46,0 27.52,-5.85 37.03,-15.35 9.5,-9.51 15.36,-22.56 15.36,-37.01 -0,-14.45 -5.86,-27.5 -15.36,-37 -9.52,-9.5 -22.56,-15.35 -37.03,-15.36l0 -7.15zm0 171.94l0 -7.15c29.06,-0.01 55.35,-11.8 74.44,-30.87 19.09,-19.09 30.88,-45.36 30.89,-74.41 -0.01,-29.03 -11.8,-55.31 -30.89,-74.4 -19.09,-19.08 -45.39,-30.87 -74.44,-30.87 -29.05,0.01 -55.34,11.8 -74.44,30.87 -19.09,19.09 -30.88,45.37 -30.89,74.4 0.01,29.04 11.8,55.32 30.89,74.41 19.1,19.07 45.39,30.87 74.44,30.87l0 14.3c-65.98,-0.01 -119.63,-53.62 -119.63,-119.58 0.01,-65.95 53.65,-119.56 119.63,-119.58 66,0.02 119.63,53.63 119.65,119.58 -0.02,65.96 -53.65,119.57 -119.65,119.58l0 -7.15z"/>
   <path class="fil3" d="M1454.16 1232.14l5.46 0c0,12.76 5.15,24.24 13.5,32.6 8.37,8.35 19.87,13.5 32.62,13.5 12.76,0 24.26,-5.15 32.62,-13.5 8.36,-8.36 13.51,-19.85 13.51,-32.6 0,-12.75 -5.15,-24.24 -13.51,-32.6 -8.36,-8.35 -19.86,-13.49 -32.62,-13.5 -12.75,0.01 -24.25,5.15 -32.62,13.5 -8.35,8.36 -13.5,19.85 -13.5,32.6l-10.91 0c0,-31.5 25.53,-57 57.03,-57.01 31.5,0.01 57.04,25.51 57.04,57.01 0,31.5 -25.54,57 -57.04,57 -31.5,0 -57.03,-25.5 -57.03,-57l5.45 0z"/>
   <path class="fil1" d="M1420.07 1266.21c0,28.47 23.11,51.56 51.59,51.56 28.49,0 51.59,-23.09 51.59,-51.56 0,-28.48 -23.11,-51.57 -51.59,-51.57 -28.48,0 -51.59,23.09 -51.59,51.57z"/>
   <polygon class="fil1" points="4281.54,1748.81 4185.83,1844.48 4281.54,1940.15 4281.54,1965.69 4160.27,1844.48 4281.54,1723.27 "/>
   <polygon class="fil1" points="4174.27,1677.35 4199.81,1677.35 4032.6,1844.48 4199.81,2011.62 4174.27,2011.62 4007.04,1844.48 "/>
   <polygon class="fil1" points="4250.87,1677.35 4276.43,1677.35 4109.21,1844.48 4276.43,2011.62 4250.87,2011.62 4083.65,1844.48 "/>
   <polygon class="fil1" points="3632.67,1682.67 3637.99,1677.35 3663.54,1677.35 3632.67,1708.21 "/>
   <polygon class="fil1" points="3632.67,1759.24 3714.59,1677.35 3740.15,1677.35 3632.67,1784.78 "/>
   <polygon class="fil1" points="4281.54,1825.38 4262.44,1844.48 4281.54,1863.59 4281.54,1889.13 4236.88,1844.48 4281.54,1799.83 "/>
   <polygon class="fil1" points="3632.67,1835.81 3791.2,1677.35 3816.77,1677.35 3649.56,1844.48 3816.77,2011.62 3791.2,2011.62 3632.67,1853.16 "/>
   <polygon class="fil1" points="3632.67,1904.18 3740.15,2011.62 3714.59,2011.62 3632.67,1929.73 "/>
   <polygon class="fil1" points="3632.67,1980.76 3663.54,2011.62 3637.99,2011.62 3632.67,2006.3 "/>
   <polygon class="fil1" points="4021.04,1677.35 4046.6,1677.35 3879.38,1844.48 4046.6,2011.62 4021.04,2011.62 3853.82,1844.48 "/>
   <polygon class="fil1" points="4097.65,1677.35 4123.21,1677.35 3955.99,1844.48 4123.21,2011.62 4097.65,2011.62 3930.44,1844.48 "/>
   <polygon class="fil1" points="3867.83,1677.35 3893.37,1677.35 3726.17,1844.48 3893.37,2011.62 3867.83,2011.62 3700.61,1844.48 "/>
   <polygon class="fil1" points="3944.43,1677.35 3969.99,1677.35 3802.77,1844.48 3969.99,2011.62 3944.43,2011.62 3777.22,1844.48 "/>
   <path class="fil2" d="M1185.02 2196.72l-363.44 363.27 -20.25 0 373.57 -373.39c2.8,-2.79 7.33,-2.79 10.13,0 2.8,2.8 2.8,7.32 0,10.12z"/>
   <path class="fil2" d="M1102.3 1575.02l-890.89 890.45c-2.79,2.8 -7.33,2.8 -10.12,0 -2.79,-2.8 -2.79,-7.33 0,-10.12l890.88 -890.45c2.8,-2.8 7.33,-2.8 10.13,0 2.79,2.79 2.79,7.31 0,10.11z"/>
   <path class="fil2" d="M956.74 1620.34l-890.89 890.45c-2.8,2.8 -7.33,2.8 -10.12,0 -2.8,-2.8 -2.8,-7.33 0,-10.11l890.88 -890.45c2.8,-2.8 7.33,-2.8 10.13,0 2.8,2.79 2.8,7.32 0,10.12z"/>
   <path class="fil3" d="M907.53 2071.67c23.69,0 42.96,19.26 42.96,42.93 0,23.68 -19.27,42.93 -42.96,42.93 -23.69,0 -42.95,-19.25 -42.95,-42.93 0,-23.67 19.26,-42.93 42.95,-42.93zm0 124.02c44.74,0 81.13,-36.37 81.13,-81.09 0,-44.7 -36.39,-81.09 -81.13,-81.09 -44.73,0 -81.13,36.39 -81.13,81.09 0,44.72 36.39,81.09 81.13,81.09z"/>
   <path class="fil2" d="M995.82 1983.43l0 -7.16c27.66,0.02 50.1,22.46 50.11,50.09 -0.01,27.64 -22.46,50.07 -50.11,50.09 -27.65,-0.02 -50.09,-22.45 -50.11,-50.09 0.01,-27.63 22.45,-50.07 50.11,-50.09l0 14.31c-9.88,0 -18.79,4 -25.29,10.5 -6.5,6.5 -10.5,15.41 -10.5,25.28 0,9.88 4,18.78 10.5,25.29 6.5,6.49 15.41,10.49 25.29,10.49 9.88,0 18.79,-4 25.3,-10.49 6.49,-6.51 10.49,-15.41 10.49,-25.29 0,-9.87 -4,-18.78 -10.49,-25.28 -6.51,-6.49 -15.42,-10.49 -25.3,-10.5l0 -7.15zm0 124.02l0 -7.15c20.41,0 38.86,-8.28 52.28,-21.68 13.41,-13.42 21.69,-31.85 21.69,-52.26 -0,-20.39 -8.28,-38.84 -21.69,-52.25 -13.42,-13.41 -31.88,-21.68 -52.28,-21.69 -20.4,0.01 -38.85,8.28 -52.28,21.69 -13.41,13.41 -21.69,31.85 -21.7,52.25 0.01,20.41 8.29,38.84 21.7,52.26 13.42,13.4 31.87,21.68 52.28,21.68l0 14.31c-48.7,-0.01 -88.28,-39.56 -88.29,-88.24 0.02,-48.67 39.59,-88.23 88.29,-88.24 48.71,0.02 88.28,39.57 88.29,88.24 -0.02,48.69 -39.58,88.24 -88.29,88.24l0 -7.15z"/>
   <path class="fil2" d="M2924.02 595.22l595.52 -595.23 20.24 0 -605.64 605.35c-2.8,2.79 -7.33,2.79 -10.12,0 -2.8,-2.8 -2.8,-7.33 0,-10.12z"/>
   <path class="fil2" d="M3069.58 549.91l550.18 -549.91 20.24 0 -560.3 560.03c-2.79,2.79 -7.33,2.79 -10.12,0 -2.8,-2.8 -2.8,-7.33 0,-10.12z"/>
   <path class="fil3" d="M3034.9 179.67c-23.69,0 -42.95,-19.26 -42.95,-42.93 0,-23.67 19.26,-42.93 42.95,-42.93 23.68,0 42.95,19.26 42.95,42.93 0,23.67 -19.27,42.93 -42.95,42.93zm0 -124.02c-44.74,0 -81.13,36.37 -81.13,81.09 0,44.7 36.39,81.09 81.13,81.09 44.73,0 81.13,-36.39 81.13,-81.09 0,-44.72 -36.4,-81.09 -81.13,-81.09z"/>
   <path class="fil2" d="M2946.61 267.91l0 7.16c-27.66,-0.02 -50.1,-22.45 -50.11,-50.09 0.01,-27.64 22.45,-50.07 50.11,-50.09 27.65,0.02 50.09,22.45 50.1,50.09 -0.02,27.63 -22.46,50.07 -50.1,50.09l0 -14.31c9.87,-0.01 18.78,-4 25.29,-10.5 6.5,-6.51 10.49,-15.4 10.5,-25.28 -0.01,-9.87 -4,-18.78 -10.5,-25.28 -6.51,-6.49 -15.41,-10.48 -25.29,-10.49 -9.89,0.01 -18.8,4 -25.3,10.49 -6.5,6.5 -10.5,15.41 -10.5,25.28 0,9.88 4,18.77 10.5,25.28 6.51,6.5 15.41,10.49 25.3,10.5l0 7.15zm0 -124.02l0 7.15c-20.42,0 -38.87,8.28 -52.29,21.69 -13.41,13.41 -21.69,31.85 -21.69,52.25 0,20.4 8.28,38.84 21.69,52.25 13.42,13.41 31.87,21.69 52.29,21.69 20.39,-0 38.85,-8.28 52.27,-21.69 13.41,-13.41 21.69,-31.85 21.7,-52.25 -0,-20.4 -8.28,-38.84 -21.7,-52.25 -13.42,-13.41 -31.87,-21.68 -52.27,-21.69l0 -14.31c48.69,0.01 88.27,39.56 88.28,88.24 -0.01,48.68 -39.59,88.24 -88.28,88.24 -48.72,-0 -88.28,-39.57 -88.29,-88.24 0.01,-48.68 39.57,-88.24 88.29,-88.24l0 7.16z"/>
   <path class="fil4" d="M4504.84 103.95c0,7.44 6.03,13.47 13.48,13.47 7.44,0 13.47,-6.03 13.47,-13.47 0,-7.44 -6.04,-13.48 -13.47,-13.48 -7.45,0 -13.48,6.04 -13.48,13.48z"/>
   <path class="fil4" d="M4329.05 103.95c0,7.44 6.03,13.47 13.48,13.47 7.44,0 13.47,-6.03 13.47,-13.47 0,-7.44 -6.03,-13.48 -13.47,-13.48 -7.45,0 -13.48,6.04 -13.48,13.48z"/>
   <path class="fil4" d="M4153.26 103.95c0,7.44 6.04,13.47 13.48,13.47 7.44,0 13.48,-6.03 13.48,-13.47 0,-7.44 -6.04,-13.48 -13.48,-13.48 -7.44,0 -13.48,6.04 -13.48,13.48z"/>
   <path class="fil4" d="M3977.48 103.95c0,7.44 6.04,13.47 13.48,13.47 7.44,0 13.48,-6.03 13.48,-13.47 0,-7.44 -6.03,-13.48 -13.48,-13.48 -7.44,0 -13.48,6.04 -13.48,13.48z"/>
   <path class="fil4" d="M4504.84 278.12c0,7.44 6.03,13.48 13.48,13.48 7.44,0 13.47,-6.04 13.47,-13.48 0,-7.44 -6.04,-13.47 -13.47,-13.47 -7.45,0 -13.48,6.03 -13.48,13.47z"/>
   <path class="fil4" d="M4329.05 278.12c0,7.44 6.03,13.48 13.48,13.48 7.44,0 13.47,-6.04 13.47,-13.48 0,-7.44 -6.03,-13.47 -13.47,-13.47 -7.45,0 -13.48,6.03 -13.48,13.47z"/>
   <path class="fil4" d="M4153.26 278.12c0,7.44 6.04,13.48 13.48,13.48 7.44,0 13.48,-6.04 13.48,-13.48 0,-7.44 -6.04,-13.47 -13.48,-13.47 -7.44,0 -13.48,6.03 -13.48,13.47z"/>
   <path class="fil4" d="M3977.48 278.12c0,7.44 6.04,13.48 13.48,13.48 7.44,0 13.48,-6.04 13.48,-13.48 0,-7.44 -6.03,-13.47 -13.48,-13.47 -7.44,0 -13.48,6.03 -13.48,13.47z"/>
   <path class="fil4" d="M4504.84 452.3c0,7.44 6.03,13.46 13.48,13.46 7.44,0 13.47,-6.02 13.47,-13.46 0,-7.44 -6.04,-13.47 -13.47,-13.47 -7.45,0 -13.48,6.02 -13.48,13.47z"/>
   <path class="fil4" d="M4329.05 452.3c0,7.44 6.03,13.46 13.48,13.46 7.44,0 13.47,-6.02 13.47,-13.46 0,-7.44 -6.03,-13.47 -13.47,-13.47 -7.45,0 -13.48,6.02 -13.48,13.47z"/>
   <path class="fil4" d="M4153.26 452.3c0,7.44 6.04,13.46 13.48,13.46 7.44,0 13.48,-6.02 13.48,-13.46 0,-7.44 -6.04,-13.47 -13.48,-13.47 -7.44,0 -13.48,6.02 -13.48,13.47z"/>
   <path class="fil4" d="M3977.48 452.3c0,7.44 6.04,13.46 13.48,13.46 7.44,0 13.48,-6.02 13.48,-13.46 0,-7.44 -6.03,-13.47 -13.48,-13.47 -7.44,0 -13.48,6.02 -13.48,13.47z"/>
   <path class="fil1" d="M4401.11 103.95l2.39 0c0,31.7 12.85,60.37 33.63,81.14 20.79,20.77 49.48,33.61 81.19,33.61 12.22,0 23.98,-1.91 35.02,-5.43l0 4.99c-11.07,3.38 -22.83,5.21 -35.02,5.21 -66.04,0 -119.58,-53.51 -119.58,-119.52l2.38 0zm58.16 -103.96l10.36 0c-12.14,5.69 -23.13,13.45 -32.5,22.81 -20.78,20.77 -33.63,49.45 -33.63,81.14l-4.77 0c0,-44.55 24.39,-83.4 60.54,-103.96z"/>
   <polygon class="fil1" points="90.66,-0 166.81,76.12 144.93,76.12 68.78,-0 "/>
   <polygon class="fil1" points="158.87,-0 235.03,76.12 213.15,76.12 136.99,-0 "/>
   <polygon class="fil1" points="227.08,-0 303.24,76.12 281.35,76.12 205.2,-0 "/>
   <polygon class="fil1" points="295.28,-0 371.44,76.12 349.56,76.12 273.41,-0 "/>
   <polygon class="fil1" points="363.5,-0 439.65,76.12 417.77,76.12 341.62,-0 "/>
   <polygon class="fil1" points="431.71,-0 507.86,76.12 485.98,76.12 409.82,-0 "/>
   <polygon class="fil1" points="499.92,-0 576.07,76.12 554.19,76.12 478.03,-0 "/>
   <polygon class="fil1" points="568.12,-0 644.28,76.12 622.39,76.12 546.24,-0 "/>
   <polygon class="fil4" points="405.49,366.13 394.13,366.13 394.13,295.14 405.49,295.14 "/>
   <polygon class="fil4" points="276.12,701.21 257.67,701.21 257.67,295.14 276.12,295.14 "/>
   <polygon class="fil4" points="276.12,217.3 257.67,217.3 257.67,137.96 276.12,137.96 "/>
   <path class="fil4" d="M503.59 190.02l67.66 0 0 67.63 -67.66 0 0 -67.63zm71.24 -3.57l-74.82 0 0 74.78 74.82 0 0 -74.78z"/>
   <path class="fil4" d="M574.83 261.22l67.65 0 0 67.62 -67.65 0 0 -67.62zm71.23 -3.57l-74.81 0 0 74.78 74.81 0 0 -74.78z"/>
   <path class="fil4" d="M646.06 261.22l67.67 0 0 67.62 -67.67 0 0 -67.62zm71.24 -3.57l-74.82 0 0 74.78 74.82 0 0 -74.78z"/>
   <path class="fil4" d="M574.83 332.43l67.65 0 0 67.63 -67.65 0 0 -67.63zm71.23 -3.58l-74.81 0 0 74.78 74.81 0 0 -74.78z"/>
   <path class="fil4" d="M574.83 190.02l67.65 0 0 67.63 -67.65 0 0 -67.63zm71.23 -3.57l-74.81 0 0 74.78 74.81 0 0 -74.78z"/>
   <path class="fil4" d="M646.06 190.02l67.67 0 0 67.63 -67.67 0 0 -67.63zm71.24 -3.57l-74.82 0 0 74.78 74.82 0 0 -74.78z"/>
   <path class="fil4" d="M717.3 190.02l67.67 0 0 67.63 -67.67 0 0 -67.63zm71.24 -3.57l-74.81 0 0 74.78 74.81 0 0 -74.78z"/>
   <path class="fil4" d="M503.59 261.22l67.66 0 0 67.62 -67.66 0 0 -67.62zm71.24 -3.57l-74.82 0 0 74.78 74.82 0 0 -74.78z"/>
   <path class="fil4" d="M503.59 332.43l67.66 0 0 67.63 -67.66 0 0 -67.63zm71.24 -3.58l-74.82 0 0 74.78 74.82 0 0 -74.78z"/>
   <path class="fil4" d="M503.59 403.63l67.66 0 0 67.63 -67.66 0 0 -67.63zm71.24 -3.57l-74.82 0 0 74.78 74.82 0 0 -74.78z"/>
   <polygon class="fil1" points="4553.33,1227.73 4182.09,1227.73 4182.09,720.5 4553.33,720.5 "/>
   <path class="fil5" d="M3983.02 1067.95l280 0 99.85 -99.8 -278.02 0 -101.83 99.8zm-3.06 287.95l280.97 0 0 -280.82 -280.97 0 0 280.82zm387.95 -104.84l0 -277.87 -99.85 99.79 0 279.86 99.85 -101.78zm-99.85 111.97l-295.24 0 0 -295.08 109.07 -106.93 293.14 0 0 293 -106.97 109.01z"/>
   <polygon class="fil1" points="4081.9,961.02 4182.09,961.02 4182.09,968.15 4084.85,968.15 3983.02,1067.95 4182.09,1067.95 4182.09,1075.08 3979.96,1075.08 3979.96,1355.9 4260.93,1355.9 4260.93,1227.73 4268.07,1227.73 4268.07,1352.84 4367.91,1251.06 4367.91,1227.73 4375.04,1227.73 4375.04,1254.02 4268.07,1363.03 3972.83,1363.03 3972.83,1067.95 "/>
   <path class="fil2" d="M4553.33 2248.85c-73.13,-38.24 -156.31,-59.88 -244.56,-59.88 -145.89,0 -277.94,59.11 -373.56,154.66 -59.75,59.73 -105.25,133.69 -130.97,216.36l-4.97 0c67.05,-217.61 269.78,-375.79 509.5,-375.79 88.17,0 171.31,21.41 244.56,59.28l0 5.37z"/>
   <path class="fil2" d="M4553.33 2286.89c-72.14,-41.06 -155.6,-64.53 -244.56,-64.53 -136.66,0 -260.37,55.36 -349.93,144.87 -53.57,53.55 -94.92,119.31 -119.49,192.76l-5 0c65.85,-198.89 253.35,-342.4 474.42,-342.4 88.85,0 172.27,23.2 244.56,63.85l0 5.45z"/>
   <path class="fil2" d="M4553.33 2325.78c-70.91,-44.38 -154.73,-70.03 -244.56,-70.03 -127.44,0 -242.8,51.63 -326.31,135.1 -47.36,47.35 -84.47,104.93 -107.72,169.15l-5.04 0c64.48,-180.12 236.7,-309.01 439.07,-309.01 89.7,0 173.45,25.34 244.56,69.2l0 5.59z"/>
   <path class="fil2" d="M4553.33 2365.81c-69.32,-48.32 -153.62,-76.65 -244.56,-76.65 -118.22,0 -225.21,47.89 -302.69,125.31 -41.13,41.11 -73.92,90.52 -95.63,145.53l-5.09 0c62.88,-161.3 219.78,-275.61 403.41,-275.61 90.76,0 174.98,27.94 244.56,75.65l0 5.78z"/>
   <path class="fil2" d="M4553.33 2407.4c-67.24,-53.13 -152.19,-84.85 -244.56,-84.85 -108.98,0 -207.63,44.15 -279.06,115.54 -34.83,34.82 -63.18,76.11 -83.08,121.91l-5.19 0c61.01,-142.43 202.51,-242.22 367.33,-242.22 92.15,0 176.98,31.2 244.56,83.58l0 6.04z"/>
   <path class="fil2" d="M4553.33 2451.26c-64.35,-59.18 -150.22,-95.32 -244.56,-95.32 -99.76,0 -190.06,40.41 -255.44,105.76 -28.48,28.47 -52.22,61.66 -69.95,98.3l-5.26 0c58.79,-123.48 184.74,-208.83 330.66,-208.83 94.02,0 179.74,35.43 244.56,93.66l0 6.43z"/>
   <path class="fil1" d="M4553.33 2256.99c-7.99,-4.23 -16.12,-8.3 -24.41,-12.17l8.07 -17.3c5.51,2.57 10.95,5.24 16.34,7.96l0 21.5z"/>
   <path class="fil1" d="M4553.33 2295.16c-12.43,-7.18 -25.27,-13.89 -38.52,-20.07l8.06 -17.29c10.4,4.85 20.54,10.02 30.46,15.47l0 21.89z"/>
   <path class="fil1" d="M4553.33 2334.22c-16.68,-10.63 -34.24,-20.29 -52.65,-28.87l8.07 -17.3c15.44,7.2 30.3,15.14 44.58,23.73l0 22.43z"/>
   <path class="fil1" d="M4553.33 2374.47c-20.66,-14.71 -42.95,-27.76 -66.77,-38.86l8.07 -17.29c20.69,9.65 40.28,20.71 58.7,33l0 23.15z"/>
   <path class="fil1" d="M4553.33 2416.43c-24.25,-19.69 -51.28,-36.76 -80.89,-50.56l8.07 -17.3c26.24,12.23 50.56,26.91 72.82,43.65l0 24.21z"/>
   <path class="fil1" d="M4553.33 2460.92c-27.19,-25.96 -59.02,-48 -95.01,-64.78l8.07 -17.29c32.24,15.02 61.33,34.08 86.94,56.28l0 25.79z"/>
   <path class="fil2" d="M921.29 -0c24.26,44.3 54.69,84.74 90.13,120.17 95.61,95.57 227.67,154.66 373.56,154.66 145.9,0 277.95,-59.09 373.56,-154.66 35.45,-35.43 65.88,-75.87 90.14,-120.17l5.38 0c-90.14,166.5 -266.37,279.61 -469.08,279.61 -202.7,0 -378.94,-113.1 -469.08,-279.61l5.39 0z"/>
   <path class="fil2" d="M959.77 -0c21.07,35.27 46.39,67.69 75.28,96.56 89.57,89.52 213.27,144.88 349.94,144.88 136.67,0 260.37,-55.36 349.93,-144.88 28.89,-28.87 54.21,-61.3 75.27,-96.56l5.5 0c-86.88,147.34 -247.22,246.22 -430.7,246.22 -183.49,0 -343.83,-98.88 -430.7,-246.22l5.49 0z"/>
   <path class="fil2" d="M999.19 -0c17.32,26.32 37.28,50.76 59.48,72.96 83.52,83.48 198.87,135.1 326.31,135.1 127.44,0 242.79,-51.63 326.31,-135.1 22.2,-22.19 42.15,-46.63 59.47,-72.96l5.66 0c-83.08,128.08 -227.35,212.83 -391.45,212.83 -164.09,0 -308.36,-84.74 -391.45,-212.83l5.66 0z"/>
   <path class="fil2" d="M1039.89 -0c12.88,17.51 27.06,34.01 42.4,49.34 77.48,77.43 184.48,125.31 302.7,125.33 118.22,-0.01 225.22,-47.89 302.69,-125.33 15.34,-15.33 29.52,-31.83 42.41,-49.34l5.91 0c-78.62,108.7 -206.55,179.43 -351,179.43 -144.46,-0 -272.39,-70.73 -351.01,-179.43l5.91 0z"/>
   <path class="fil2" d="M1082.35 -0c7.47,8.92 15.34,17.5 23.56,25.72 71.43,71.39 170.08,115.54 279.07,115.54 108.99,-0 207.64,-44.15 279.07,-115.54 8.23,-8.22 16.09,-16.81 23.56,-25.72l6.17 0c-73.25,89.15 -184.37,146.04 -308.8,146.04 -124.43,-0 -235.54,-56.89 -308.79,-146.04l6.16 0z"/>
   <path class="fil2" d="M1127.43 -0l2.1 2.12c65.39,65.35 155.69,105.75 255.45,105.76 99.76,-0.01 190.06,-40.41 255.44,-105.76l2.1 -2.12 6.61 0c-66.61,69.42 -160.32,112.65 -264.16,112.65 -103.83,0 -197.54,-43.23 -264.15,-112.65l6.6 0z"/>
   <path class="fil1" d="M1164.57 218.73c71.28,33.23 146.19,48.94 219.94,48.94 184.52,-0.02 361.69,-98.42 455.7,-267.68l21.72 0c-96.08,181.12 -282.82,286.77 -477.42,286.76 -76.46,0 -154.17,-16.31 -228.01,-50.73l8.07 -17.3z"/>
   <path class="fil1" d="M1178.69 188.47c66.71,31.1 136.81,45.81 205.84,45.81 166.7,-0.02 327,-85.83 417.07,-234.28l22.16 0c-92.4,160.33 -262.35,253.37 -439.23,253.36 -71.74,0 -144.64,-15.31 -213.91,-47.6l8.07 -17.29z"/>
   <path class="fil1" d="M1192.81 158.21c62.14,28.97 127.44,42.67 191.74,42.67 148.67,-0.02 291.85,-73.3 377.41,-200.89l22.79 0c-88.22,139.51 -241.22,219.97 -400.2,219.96 -67.01,0 -135.1,-14.3 -199.81,-44.46l8.07 -17.29z"/>
   <path class="fil1" d="M1206.94 127.94c57.58,26.84 118.07,39.53 177.64,39.54 79.25,0 156.84,-22.49 223.54,-64.1 42.98,-26.83 81.43,-61.57 112.89,-103.38l23.58 0c-83.41,118.63 -219.18,186.57 -360.01,186.56 -62.28,0 -125.57,-13.3 -185.71,-41.32l8.07 -17.3z"/>
   <path class="fil1" d="M1221.06 97.67c53.01,24.72 108.7,36.4 163.54,36.4 72.95,0 144.39,-20.7 205.8,-59.02 32.46,-20.26 62.11,-45.43 87.71,-75.06l24.78 0c-77.77,97.7 -195.96,153.17 -318.29,153.16 -57.56,0 -116.04,-12.28 -171.61,-38.19l8.07 -17.3z"/>
   <path class="fil1" d="M1235.18 67.42c48.43,22.58 99.32,33.26 149.43,33.26 66.67,0 131.95,-18.92 188.06,-53.92 21.33,-13.31 41.34,-28.95 59.6,-46.76l26.63 0c-22.68,24.52 -48.34,45.61 -76.12,62.94 -59.13,36.89 -127.89,56.82 -198.17,56.82 -52.82,0 -106.5,-11.28 -157.51,-35.05l8.07 -17.3z"/>
   <polygon class="fil1" points="1570.37,2560 1563.24,2560 1563.24,2293.78 1282.27,2293.78 1282.27,2560 1275.13,2560 1275.13,2296.82 1175.29,2398.61 1175.29,2560 1168.16,2560 1168.16,2395.66 1275.13,2286.65 1570.37,2286.65 "/>
   <path class="fil4" d="M1747.13 2101.63c0,5.56 4.5,10.07 10.07,10.07 5.56,0 10.07,-4.51 10.07,-10.07 0,-5.56 -4.5,-10.06 -10.07,-10.06 -5.57,0 -10.07,4.5 -10.07,10.06z"/>
   <path class="fil4" d="M1615.78 2101.63c0,5.56 4.52,10.07 10.07,10.07 5.56,0 10.07,-4.51 10.07,-10.07 0,-5.56 -4.51,-10.06 -10.07,-10.06 -5.56,0 -10.07,4.5 -10.07,10.06z"/>
   <path class="fil4" d="M1484.45 2101.63c0,5.56 4.5,10.07 10.06,10.07 5.56,0 10.07,-4.51 10.07,-10.07 0,-5.56 -4.51,-10.06 -10.07,-10.06 -5.56,0 -10.06,4.5 -10.06,10.06z"/>
   <path class="fil4" d="M1353.1 2101.63c0,5.56 4.52,10.07 10.07,10.07 5.57,0 10.08,-4.51 10.08,-10.07 0,-5.56 -4.51,-10.06 -10.08,-10.06 -5.55,0 -10.07,4.5 -10.07,10.06z"/>
   <path class="fil4" d="M1747.13 2231.77c0,5.55 4.5,10.06 10.07,10.06 5.56,0 10.07,-4.51 10.07,-10.06 0,-5.56 -4.5,-10.07 -10.07,-10.07 -5.57,0 -10.07,4.51 -10.07,10.07z"/>
   <path class="fil4" d="M1615.78 2231.77c0,5.55 4.52,10.06 10.07,10.06 5.56,0 10.07,-4.51 10.07,-10.06 0,-5.56 -4.51,-10.07 -10.07,-10.07 -5.56,0 -10.07,4.51 -10.07,10.07z"/>
   <path class="fil4" d="M1484.45 2231.77c0,5.55 4.5,10.06 10.06,10.06 5.56,0 10.07,-4.51 10.07,-10.06 0,-5.56 -4.51,-10.07 -10.07,-10.07 -5.56,0 -10.06,4.51 -10.06,10.07z"/>
   <path class="fil4" d="M1353.1 2231.77c0,5.55 4.52,10.06 10.07,10.06 5.57,0 10.08,-4.51 10.08,-10.06 0,-5.56 -4.51,-10.07 -10.08,-10.07 -5.55,0 -10.07,4.51 -10.07,10.07z"/>
   <path class="fil4" d="M1747.13 2361.89c0,5.56 4.5,10.07 10.07,10.07 5.56,0 10.07,-4.5 10.07,-10.07 0,-5.55 -4.5,-10.06 -10.07,-10.06 -5.57,0 -10.07,4.51 -10.07,10.06z"/>
   <path class="fil4" d="M1615.78 2361.89c0,5.56 4.52,10.07 10.07,10.07 5.56,0 10.07,-4.5 10.07,-10.07 0,-5.55 -4.51,-10.06 -10.07,-10.06 -5.56,0 -10.07,4.51 -10.07,10.06z"/>
   <path class="fil4" d="M1484.45 2361.89c0,5.56 4.5,10.07 10.06,10.07 5.56,0 10.07,-4.5 10.07,-10.07 0,-5.55 -4.51,-10.06 -10.07,-10.06 -5.56,0 -10.06,4.51 -10.06,10.06z"/>
   <path class="fil4" d="M1353.1 2361.89c0,5.56 4.52,10.07 10.07,10.07 5.57,0 10.08,-4.5 10.08,-10.07 0,-5.55 -4.51,-10.06 -10.08,-10.06 -5.55,0 -10.07,4.51 -10.07,10.06z"/>
   <path class="fil4" d="M1747.13 2492.02c0,5.56 4.5,10.07 10.07,10.07 5.56,0 10.07,-4.51 10.07,-10.07 0,-5.56 -4.5,-10.06 -10.07,-10.06 -5.57,0 -10.07,4.51 -10.07,10.06z"/>
   <path class="fil4" d="M1615.78 2492.02c0,5.56 4.52,10.07 10.07,10.07 5.56,0 10.07,-4.51 10.07,-10.07 0,-5.56 -4.51,-10.06 -10.07,-10.06 -5.56,0 -10.07,4.51 -10.07,10.06z"/>
   <path class="fil4" d="M1484.45 2492.02c0,5.56 4.5,10.07 10.06,10.07 5.56,0 10.07,-4.51 10.07,-10.07 0,-5.56 -4.51,-10.06 -10.07,-10.06 -5.56,0 -10.06,4.51 -10.06,10.06z"/>
   <path class="fil4" d="M1353.1 2492.02c0,5.56 4.52,10.07 10.07,10.07 5.57,0 10.08,-4.51 10.08,-10.07 0,-5.56 -4.51,-10.06 -10.08,-10.06 -5.55,0 -10.07,4.51 -10.07,10.06z"/>
   <path class="fil2" d="M3785.1 2455.31l-81.8 94.65c-1.35,1.57 -3.35,2.48 -5.41,2.48 -2.07,0 -4.06,-0.92 -5.41,-2.48l-76.39 -88.38 -76.37 88.38c-1.36,1.57 -3.35,2.48 -5.42,2.48 -2.07,0 -4.06,-0.92 -5.42,-2.48l-76.4 -88.38 -76.41 88.38c-1.35,1.57 -3.35,2.48 -5.41,2.48 -2.07,0 -4.06,-0.92 -5.42,-2.48l-76.41 -88.38 -76.41 88.38c-2.59,2.99 -7.11,3.32 -10.1,0.74 -2.99,-2.58 -3.31,-7.1 -0.73,-10.09l81.83 -94.65c1.35,-1.57 3.34,-2.48 5.42,-2.48 2.07,0 4.06,0.91 5.42,2.48l76.41 88.37 76.4 -88.37c1.36,-1.57 3.35,-2.48 5.42,-2.48 2.07,0 4.06,0.91 5.41,2.48l76.4 88.37 76.37 -88.37c1.35,-1.57 3.35,-2.48 5.42,-2.48 2.07,0 4.06,0.91 5.42,2.48l76.39 88.37 76.39 -88.37c2.58,-2.99 7.11,-3.32 10.09,-0.74 2.99,2.58 3.32,7.11 0.74,10.09z"/>
   <path class="fil6" d="M1599.4 747.25c2.72,-3.67 2.41,-8.87 -0.91,-12.19 -0.01,-0.01 -0.02,-0.03 -0.04,-0.04 0.32,4.07 0.63,8.16 0.95,12.22z"/>
   <path class="fil6" d="M1599.4 747.25c2.72,-3.67 2.41,-8.87 -0.91,-12.19 -0.01,-0.01 -0.02,-0.03 -0.04,-0.04 0.32,4.07 0.63,8.16 0.95,12.22z"/>
   <path class="fil7" d="M1679.92 1786.03c15.11,-31.44 23.59,-66.67 23.59,-103.88 0,-50.5 -15.57,-97.27 -42.18,-135.96 6.19,79.97 12.39,159.87 18.59,239.83z"/>
  </g>
 </g>
</svg>
